<?xml version="1.0" encoding="UTF-8" standalone="no"?>
<!-- Created with Inkscape (http://www.inkscape.org/) -->

<svg
   version="1.1"
   id="svg2"
   xml:space="preserve"
   width="768"
   height="768"
   viewBox="0 0 768 768"
   sodipodi:docname="REd cove type.ai"
   xmlns:inkscape="http://www.inkscape.org/namespaces/inkscape"
   xmlns:sodipodi="http://sodipodi.sourceforge.net/DTD/sodipodi-0.dtd"
   xmlns="http://www.w3.org/2000/svg"
   xmlns:svg="http://www.w3.org/2000/svg"><defs
     id="defs6"><clipPath
       clipPathUnits="userSpaceOnUse"
       id="clipPath16"><path
         d="M 0,576 H 576 V 0 H 0 Z"
         id="path14" /></clipPath></defs><sodipodi:namedview
     id="namedview4"
     pagecolor="#ffffff"
     bordercolor="#666666"
     borderopacity="1.0"
     inkscape:pageshadow="2"
     inkscape:pageopacity="0.0"
     inkscape:pagecheckerboard="0" /><g
     id="g8"
     inkscape:groupmode="layer"
     inkscape:label="REd cove type"
     transform="matrix(1.3333333,0,0,-1.3333333,0,768)"><g
       id="g10"><g
         id="g12"
         clip-path="url(#clipPath16)"><g
           id="g18"
           transform="translate(318.371,266.2752)"><path
             d="m 0,0 c -2.173,-2.261 -2.777,-4.79 -1.983,-7.504 0.869,1.259 2.331,2.391 2.692,0.363 0.389,-2.179 0.211,-4.332 1.418,-6.226 0.357,2.364 1.775,3.269 2.379,1.18 0.641,-2.211 1.416,-4.269 2.917,-5.813 -0.112,2.854 0.828,4.601 1.912,2.457 0.94,-1.856 0.778,-3.97 1.812,-4.995 0.656,3.449 2.253,3.622 1.455,1.669 -0.325,-1.799 -0.147,-3.244 1.127,-3.909 0.339,4.176 3.727,0.468 0.414,-1.506 -1.342,-0.801 -2.468,1.121 -3.959,0.917 2.811,-3.845 2.276,-5.176 -0.899,-2.859 -1.242,0.907 -2.265,2.005 -3.974,2.241 1.581,-3.305 0.961,-4.047 -1.425,-1.752 -1.603,1.541 -3.239,3.032 -5.371,4.037 0.927,-4.347 0.067,-4.808 -2.358,-1.393 -1.203,1.693 -2.811,3.03 -5.311,3.865 2.202,-3.559 1.646,-5.388 -0.245,-3.531 -1.469,1.442 -2.263,3.222 -4.424,3.983 0.99,-3.691 -0.334,-3.949 -2.425,-2.27 -1.857,1.49 -3.774,2.489 -5.959,2.988 1.75,-2.372 1.359,-3.74 -0.832,-2.695 -2.043,0.973 -3.869,2.227 -6.101,2.491 2.34,-3.291 1.928,-4.11 -1.201,-2.389 -2.061,1.132 -4.097,1.628 -6.147,1.421 2.066,-2.686 1.206,-3.284 -2.715,-2.276 -1.67,0.429 -3.41,0.077 -5.115,-0.565 0.545,-0.47 1.261,-0.771 1.636,-1.411 -2.53,-0.309 -5.156,-1.326 -7.336,-1.693 -7.215,-1.217 -11.707,1.007 -11.193,5.384 0.682,5.823 7.345,7.105 16.932,4.822 8.043,-1.916 16.873,-3.546 26.638,0.116 1.514,0.569 2.315,2.354 4.124,2.94 1.906,0.617 3.187,1.605 3.752,3.258 -1.318,-0.326 -2.29,-0.312 -2.924,0.042 1.464,1.341 2.32,3.084 3.148,4.958 0.718,1.627 2.454,2.533 4.847,2.601 C -3.104,-1.009 -1.565,-0.848 0,0 M 0.343,2.807 C -1.601,1.252 -3.774,0.377 -6.176,0.183 -8.196,-0.186 -9.644,-1.35 -10.52,-3.307 l -2.327,0.075 c 1.728,1.488 2.812,3.104 3.855,5.273 z M 0.258,5.273 C -1.899,3.824 -5.138,3.181 -9.12,3.092 l -0.451,1.968 -1.393,-1.841 -1.112,0.183 0.085,2.297 c 1.459,0.351 2.949,0.469 4.378,0.033 2.658,-0.813 5.248,-0.902 7.871,-0.459 m 0.513,1.014 c -1.864,-0.157 -3.678,0.036 -6.602,1.255 -2.068,0.862 -4.916,0.485 -6.535,-0.75 l -0.224,1.613 c 2.717,1.196 5.865,1.51 7.857,-0.058 1.67,-1.315 3.843,-1.241 5.504,-2.06 m 3.34,1.878 c -3.024,-0.227 -6.49,1.395 -11.134,3.402 -3.358,1.452 -6.453,-0.312 -9.079,-2.552 l -1.198,3.062 c 4.412,1.724 9.518,2.668 12.752,0.407 2.716,-1.896 5.962,-3.139 8.659,-4.319 m -50.702,-51.372 c 1.585,-2.711 -1.913,-3.414 -5.518,0.03 -1.047,1 -2.033,1.659 -3.047,2.012 -1.507,0.524 -3.346,0.939 -3.79,2.299 -0.357,1.085 1.693,1.455 3.093,0.685 0.729,-0.401 1.409,-1.234 2.667,-1.538 2.77,-0.669 4.563,-2.159 6.595,-3.488 m 2.996,2.212 c 1.107,-0.789 -0.126,-1.535 -0.855,-1.276 -1.833,0.65 -3.484,1.588 -5.053,2.552 -1.071,0.735 -2.269,1 -3.402,1.441 -0.576,0.224 -0.258,0.952 1.345,0.855 1.451,-0.431 2.695,-1.18 4.033,-1.951 1.164,-0.671 2.743,-0.774 3.932,-1.621 m 11.392,8.335 c -5.067,-5.063 -8.759,-7.69 -10.628,-7.084 -0.711,1.058 -1.798,1.509 -2.905,1.64 -1.688,0.203 -2.969,0.339 -4.195,1.021 5.806,2.194 11.694,3.817 17.728,4.423 M 1.256,-5.077 c 3.921,-4.798 9.889,-8.715 15.564,-13.469 2.823,-2.364 1.555,-5.405 -0.718,-7.31 2.374,3.631 1.326,6.041 -1.028,7.655 -6.969,4.783 -12.423,9.218 -13.818,13.124 m 13.135,-21.799 c 0.571,-3.034 -5.552,-4.183 -11.991,-2.127 -8.02,2.56 -12.865,3.683 -19.362,5.35 -11.508,2.843 -18.016,0.01 -23.121,-4.414 l 2.655,2.296 c 3.804,3.29 9.722,4.724 18.417,3.596 6.613,-1.608 13.034,-3.501 20.125,-5.259 5.648,-1.4 10.136,-2.563 13.277,0.558 m -62.353,-0.426 c 2.876,1.992 6.03,2.97 9.592,2.467 -7.531,-9.882 -16.902,-11.172 -26.722,-10.376 1.942,0.935 4.51,0.907 7.365,0.935 0.147,1.309 -1.935,1.768 -2.903,2.653 3.027,1.05 4.582,1.117 6.895,-0.29 0.796,-0.483 3.399,0.313 3.994,0.567 -0.668,0.696 -1.963,1.236 -3.544,1.705 1.81,0.904 4.447,0.772 8.082,0.541 0.108,0.826 -0.812,1.426 -2.759,1.798 M 5.14,-45.588 c -1.8,-0.481 -3.827,-0.17 -6.082,0.935 -0.085,1.787 -0.97,2.439 -2.654,1.957 -2.114,-1.871 -4.454,-2.381 -7.025,-1.531 2.029,0.383 3.484,1.262 3.683,3.232 l 3.09,-1.175 0.376,3.517 c 1.585,-3.588 4.742,-5.616 8.612,-6.935 m 0.343,-1.956 c 1.322,-0.746 1.059,-3.312 -0.172,-3.062 l -4.538,0.919 c -1.114,0.226 -1.83,0.787 -2.315,0.186 l -0.967,-1.202 -0.316,2.223 c -0.201,1.413 -3.557,0.399 -5.584,0.769 -0.331,0.061 -0.704,0.609 0.229,0.977 l 3.39,0.566 c 1.622,0.272 2.681,-0.18 3.164,-1.291 l 0.427,1.776 c 2.228,-0.72 4.697,-0.742 6.682,-1.861 m -27.708,7.57 c 1.791,-0.86 3.038,-0.255 2.955,-0.553 -0.084,-0.299 -1.242,-0.893 -2.871,-0.893 -4.712,0 -3.813,3.234 -0.084,1.446 m 3.04,6.123 c 0.771,-1.672 1.114,-3.345 0.515,-5.018 -1.856,-0.311 -3.599,-0.056 -5.225,0.765 1.821,1.113 3.347,2.687 4.71,4.253 m 13.96,-3.572 c -2.093,-0.423 -3.39,-1.641 -3.886,-3.652 -2.37,-2.176 -5,-0.053 -3.129,2.15 1.761,2.075 1.88,2.645 0.336,3.799 z m 10.621,-5.358 0.087,-1.191 c -2.37,0.369 -4.396,1.559 -6.082,3.742 l 0.771,0.681 c 1.37,-1.539 2.939,-2.829 5.224,-3.232 m 1.798,2.977 -4.71,0.17 c 2.171,-2.339 3.912,-3.048 4.71,-0.17 m 11.392,-9.739 c 1.256,1.035 2.619,-0.836 1.413,-1.531 -1.697,-0.977 -3.44,-1.063 -5.268,-0.637 1.858,0.226 2.716,1.229 3.855,2.168 m -49.419,-4.806 c 0.172,-0.736 0.201,-1.473 -0.085,-2.21 -1.141,0.793 -2.626,1.361 -4.453,1.7 1.512,0.624 3.026,0.794 4.538,0.51 m 1.199,4.679 c 0.249,-0.766 0.322,-1.531 0,-2.297 -1.485,-0.064 -2.969,-0.191 -4.454,-0.595 1.485,0.964 2.798,2.268 4.454,2.892 m -40.512,34.531 c -2.825,-4.395 -2.568,-9.469 0.771,-15.224 -4.316,3.381 -4.302,12.722 -0.771,15.224 m 0.856,-5.444 c 0.487,4.339 4.827,3.941 6.082,0.341 -2.026,1.587 -4.053,1.474 -6.082,-0.341 m 10.108,-7.825 c -3.14,0.454 -5.14,-0.566 -5.995,-3.062 -1.798,3.998 2.512,6.125 5.995,3.062 m -8.994,1.191 c -0.542,4.934 3.369,6.067 5.824,2.893 -3.482,0.95 -5.081,-0.44 -5.824,-2.893 m 47.364,16.075 c 2.851,1.314 3.807,0.49 2.654,-0.425 -5.899,-4.688 -14.464,-3.261 -22.955,-0.33 -9.761,3.37 -19.055,2.701 -28.262,-1.371 -0.077,0.638 0.023,1.347 0.515,2.211 1.581,1.522 3.559,2.986 5.483,4.054 -0.316,-0.829 -1.654,-2.04 -0.691,-2.174 1.871,1.568 4.013,2.938 6.341,3.599 -0.684,-1.021 -1.141,-1.928 -1.027,-2.721 2.283,2.061 4.671,3.043 7.183,2.723 -1.551,-0.733 -2.363,-1.557 -2.086,-2.515 2.283,1.721 4.659,2.614 7.173,2.295 -1.08,-0.81 -1.661,-1.62 -1.141,-2.43 2.347,1.344 5.064,1.833 7.754,1.476 -1.24,-0.549 -2.267,-1.261 -2.136,-2.603 2.191,1.048 4.41,1.747 6.716,1.205 -1.261,-0.666 -1.823,-1.423 -1.37,-2.316 2.761,0.932 5.62,1.504 8.724,1.189 -1.622,-0.837 -2.53,-1.639 -1.869,-2.363 2.322,1.561 4.788,2.25 7.336,2.449 -1.299,-1.236 -2.496,-2.675 -1.853,-3.571 z m -1.198,4.848 c 5.094,3.16 5.888,0.178 5.737,-2.806 -1.114,2.183 -3.026,3.118 -5.737,2.806 m 1.283,3.402 c 2.313,1.871 4.168,1.475 5.568,-1.191 -0.057,3.843 -4.568,5.176 -5.568,1.191 m 0.599,3.827 c -0.484,4.054 3.798,4.565 4.884,1.276 -2.489,1.71 -3.772,0.43 -4.884,-1.276 m 0.515,4.508 c -2.34,1.106 -4.682,1.758 -7.022,1.956 0.908,0.289 1.814,0.832 2.722,0.865 l -0.41,1.857 c 1.956,-1.176 3.441,-2.821 4.71,-4.678 m -11.391,7.485 c 1.841,-0.703 6.713,-4.302 -0.344,-3.317 -2.321,0.324 -3.655,0.891 -3.511,2.296 0.147,1.406 2.013,1.723 3.855,1.021 M 26.809,0.085 c 2.187,0.841 0.6,-1.248 -0.258,-2.127 -1.496,-1.016 -3.347,-1.119 -5.261,-1.517 -1.954,-0.405 -3.516,-1.71 -4.93,-3.075 -3.141,1.077 -3.902,4.921 -1.029,5.188 3.952,0.368 7.59,0.036 11.478,1.531 m 20.64,-18.372 c -0.112,-2.666 -0.311,-5.162 -1.114,-6.463 0.087,2.183 -0.627,4.366 -2.141,6.549 1.087,0.426 2.171,0.397 3.255,-0.086 m -85.476,-9.95 c 0.071,-1.092 0.428,-2.07 1.07,-2.934 -1.383,0.467 -1.74,1.445 -1.07,2.934 m 4.71,3.147 c -0.442,-2.112 0.215,-3.757 1.37,-5.189 -3.196,0.454 -4.252,3.29 -1.37,5.189 m 5.739,0.51 c -1.457,-1.396 -1.828,-3.197 -1.457,-5.273 -2.825,2.438 -2.425,5.216 1.457,5.273 m -6.219,-10.641 c 0.009,-1.65 0.361,-3.09 2.202,-3.782 -3.36,0.228 -3.749,1.658 -2.202,3.782 m 3.207,1.873 c 0.084,-1.638 0.498,-3.051 2.36,-3.657 -3.349,0.077 -3.797,1.48 -2.36,3.657 m 2.868,1.935 c 0.169,-1.635 0.657,-3.027 2.551,-3.537 -3.354,-0.094 -3.878,1.284 -2.551,3.537 m 3.319,3.113 c -0.018,-1.658 0.314,-3.109 2.155,-3.833 -3.374,0.281 -3.74,1.723 -2.155,3.833 m 5.085,2.112 c -0.567,-1.589 -0.729,-3.093 0.801,-4.391 -3.15,1.374 -3.024,2.881 -0.801,4.391 m 4.79,-0.451 c -0.709,-1.573 -1.002,-3.093 0.451,-4.543 -3.097,1.66 -2.843,3.186 -0.451,4.543 m 6.316,-1.353 c -1.752,-0.536 -2.56,-2.583 -1.613,-4.525 -3.044,1.946 -1.466,5.362 1.613,4.525 m 4.149,-1.147 c -0.997,-1.543 -1.974,-3.35 -0.679,-5.102 -2.992,2.233 -2.054,4.052 0.679,5.102 m 4.596,-1.591 c -1.141,-1.527 -1.819,-3.095 -0.602,-4.999 -2.939,2.519 -2.301,4.103 0.602,4.999 m 5.08,-0.875 c -1.285,-1.511 -2.093,-3.096 -0.953,-5.152 -2.887,2.806 -2.121,4.409 0.953,5.152 m 4.729,-0.629 c -1.428,-1.496 -2.363,-3.097 -1.304,-5.303 -2.834,3.092 -1.938,4.714 1.304,5.303 m -0.648,-7.768 c 0.609,-2.117 1.894,-2.74 4.024,-2.891 -3.321,-1.167 -4.735,-0.629 -4.024,2.891 m 2.343,3.235 c 0.633,-2.177 1.983,-2.89 4.202,-3.075 -3.427,-1.193 -4.893,-0.558 -4.202,3.075 m 1.882,3.331 c 0.661,-2.235 2.073,-3.039 4.383,-3.259 -3.532,-1.218 -5.053,-0.486 -4.383,3.259 m 2.999,3.01 c 0.686,-2.296 2.162,-3.189 4.559,-3.444 -3.632,-1.244 -5.206,-0.415 -4.559,3.444 m 2.768,2.72 c 1.123,-2.192 2.816,-2.886 5.314,-2.729 -3.45,-1.912 -5.216,-1.29 -5.314,2.729 m 1.313,2.413 c 2.406,-0.809 4.22,-0.134 5.982,1.76 -1.171,-3.858 -2.985,-4.622 -5.982,-1.76 m -0.86,3.931 c 2.596,-0.214 4.303,0.896 5.625,3.221 -0.227,-4.128 -1.915,-5.314 -5.625,-3.221 m -2.589,3.071 c 2.184,0.794 3.202,2.349 3.422,4.743 1.361,-3.435 0.377,-5.034 -3.422,-4.743 m -4.36,4.11 c 2.063,-0.226 3.534,0.782 4.661,2.954 -0.242,-3.858 -1.704,-4.911 -4.661,-2.954 m -4.196,3.019 c 2.306,0.031 3.88,1.152 4.937,3.337 0.107,-3.662 -1.457,-4.813 -4.937,-3.337 M 4.248,-5.469 C 6.92,-6.498 9.321,-5.957 11.6,-3.929 9.992,-8.197 7.588,-8.764 4.248,-5.469 M 5.366,1.504 C 6.933,-0.957 9.271,-2.015 12.414,-1.747 8.466,-4.272 6.119,-3.224 5.366,1.504 M 9.136,5.5 C 10.051,2.665 12.105,0.964 15.303,0.396 10.735,-1.077 8.679,0.624 9.136,5.5 m 5.511,6.577 c 3.511,-1.112 3.111,-5.202 -2.228,-4.337 6.453,-5.726 9.25,6.59 2.228,4.337 M 22.355,8.335 C 21.157,6.237 21.784,4.479 24.238,3.061 19.1,2.921 18.986,7.145 22.355,8.335 m 12.076,5.358 1.713,-1.361 C 32.603,8.959 28.836,7.456 24.837,7.484 l -0.169,1.871 c 3.253,0.086 6.508,1.532 9.763,4.338 m 3.232,-0.213 c 4.349,0.935 8.221,1.09 12.341,0.211 1.032,-0.062 0.693,-0.805 -0.114,-0.697 C 44.041,13.947 39.418,12.428 35.81,9.345 33.23,7.142 29.932,6.092 26.622,4.62 26.308,4.327 26.395,4.176 26.88,4.038 l 1.226,0.464 2.075,-0.544 1.501,1.196 2.479,-0.909 0.707,1.146 3.246,-0.452 c 0.672,0.961 0.661,2.149 -0.037,3.563 8.377,-1.788 9.967,-8.453 1.75,-8.341 -0.132,-2.15 -0.816,-2.095 -2.964,-2.132 -2.96,-0.049 -5.104,-2.883 -7.483,-4.985 -2.319,-0.626 -4.298,-0.46 -5.931,0.501 2.711,-0.347 5.225,0.514 7.109,2.787 1.455,1.755 2.835,3.399 5.282,3.219 0.67,0.385 0.785,0.941 -0.13,1.411 -1.977,0.151 -3.498,-0.503 -4.484,-2.26 -1.923,-3.427 -4.616,-3.576 -7.514,-3.543 -2.862,0.033 -5.36,-1.014 -6.609,-3.673 l 1.995,0.289 0.414,-2.112 1.7,0.16 0.37,-1.648 2.242,0.531 0.137,-2.051 1.769,0.172 0.375,-1.623 1.628,0.164 0.167,-1.657 0.904,-0.992 -0.215,-1.634 1.189,-0.248 0.826,-1.756 c 3.795,-0.652 6.565,-2.495 9.848,-3.743 3.111,-0.829 4.559,2.309 0.938,7.147 -0.527,0.702 0.434,1.072 0.702,1.22 1.725,0.743 3.447,0.237 5.172,-0.835 l 0.149,2.218 c 3.872,0.246 6.386,-5.103 4.746,-4.195 -0.732,0.406 -1.434,0.782 -2.365,0.212 0.409,-2.438 0.018,-4.818 -1.174,-7.142 1.11,1.353 2.498,2.113 3.672,3.039 1.393,1.098 2.82,1.478 2.916,-0.515 l 0.284,-5.765 -1.915,2.105 c -1.461,1.607 -1.875,1.779 -3.456,-0.329 -0.686,-0.915 -1.883,-1.056 -2.93,-1.063 -0.11,-3.121 -1.448,-4.051 -5.321,-3.662 -1.491,0.15 -3.189,-1.092 -3.159,-2.286 0.016,-0.625 0.865,-1.121 1.716,-1.549 -2.219,-1.005 -4.28,-0.955 -6.108,0.058 -2.107,1.166 0.485,2.909 4.824,5.294 1.403,0.771 0.828,1.863 -1.141,2.051 -3.031,0.291 -6.124,-0.226 -9.269,-1.41 l 0.174,-2.365 -0.949,-0.095 -0.25,-2.293 -1.649,0.036 0.114,-2.018 -1.304,0.29 -0.368,-1.853 -1.93,0.346 -0.037,-2.222 -2.013,0.013 -0.563,-1.618 -2.022,0.219 -0.615,-1.854 -1.421,0.15 c -3.349,-3.455 -5.307,-6.101 -3.397,-6.341 1.97,-0.249 3.635,0.824 5.154,2.426 2.74,2.154 3.882,0.34 3.939,-2.893 l 2.887,0.732 c 1.384,-1.11 0.597,-3.567 -1.672,-6.946 -0.417,1.056 -0.03,3.663 -1.247,3.168 -2.4,-0.977 -4.799,-1.329 -7.199,-1.398 1.659,-1.15 4.033,-1.733 6.607,-1.748 0.956,-1.735 -1.327,-3.315 -4.71,-4.824 2.477,2.585 -0.355,3.87 -4.285,5.091 -1.855,-0.077 -3.573,0.048 -4.792,1.05 -5.437,4.462 -7.588,3.952 -7.366,0.187 -1.42,1.057 -2.5,2.453 -3.237,4.19 -0.841,-1.242 -1.999,-2 -3.3,-1.427 0.992,0.957 1.07,1.914 0.235,2.87 -0.91,0.179 -1.994,-0.494 -2.736,0.535 -1.569,1.046 -3.767,1.312 -6.251,1.224 -3.422,3.551 -7.174,1.644 -3.715,-1.725 -2.523,-0.109 -4.136,0.803 -4.834,2.735 1.378,1.65 3.402,2.653 6.378,2.714 -0.208,0.651 -0.073,1.302 -0.622,1.953 -4.255,-1.464 -6.94,-0.434 -8.912,1.731 -2.231,-1.872 -4.545,-2.112 -7.034,-2.213 -3.759,-0.154 -5.383,-1.764 -5.888,-3.092 -2.198,-4.961 3.712,-6.406 11.481,-1.529 0.574,-1.22 0.805,-2.779 0.695,-4.679 2.198,-0.355 0.942,-2.271 -1.887,-4.895 -0.405,-2.137 -2.068,-3.339 -4.301,-4.115 0.684,1.058 0.796,2.116 0.337,3.174 -3.729,0.698 -6.414,2.488 -8.999,4.775 -2.427,-0.263 -3.939,0.381 -4.536,1.932 -2.459,-0.233 -4.719,-0.212 -6.263,-1.127 0.128,-0.965 0.77,-1.76 1.155,-2.64 -1.663,0.871 -2.754,1.74 -3.276,2.61 -1.073,1.213 -0.544,1.971 1.581,2.276 2.088,0.499 4.179,0.657 6.267,0.475 1.579,0.614 1.874,2.453 -0.064,2.608 -1.875,0.15 -3.538,0.584 -4.73,1.641 -1.277,1.57 -3.02,2.255 -5.033,3.222 -2.168,1.04 -2.443,4.058 -4.307,4.535 -4.488,1.149 -7.864,1.399 -9.152,3.566 0.924,-0.136 1.775,-0.059 2.468,0.485 -3.548,1.554 -6.318,3.315 -7.354,5.549 0.848,-0.177 1.617,-0.199 2.349,-0.151 -2.354,1.938 -3.369,4.319 -4.01,6.824 0.885,-0.719 1.844,-1.332 2.958,-1.71 -1.981,3.91 -2.244,7.082 0.002,9.177 0.025,-1.581 0.519,-2.382 1.231,-2.829 -0.046,2.515 0.384,5.194 1.482,7.369 0.156,-1.223 0.49,-2.269 1.217,-2.925 3.832,7.367 13.219,12.535 28.783,8.62 1.954,-0.491 4.303,-1.127 6.904,-1.629 12.691,-2.846 15.937,7.131 7.299,10.92 -2.555,1.025 -5.108,0.645 -7.663,-0.371 -2.72,-1.232 -5.869,-1.527 -7.903,-0.717 -1.821,1.01 -4.255,1.616 -6.533,1.944 2.07,0.857 3.939,0.626 6.21,-0.11 2.88,-0.933 5.534,0.108 7.616,1.693 -1.924,1.081 -2.437,0.653 -5.392,-0.087 -1.155,-0.454 -2.473,-0.248 -3.672,0.456 -1.626,0.955 -3.072,1.049 -4.623,0.575 -2.324,-0.71 -4.128,-0.298 -5.775,0.383 1.83,0.311 3.602,0.327 4.497,1.532 0.546,0.736 1.738,0.685 3.035,0.453 2.919,-0.696 5.614,-1.169 7.505,-0.843 -2.257,1.556 -4.762,2.793 -7.82,3.328 -4.669,0.683 -6.403,2.034 -7.076,3.624 1.128,-0.666 2.256,-1.796 3.638,-1.615 2.715,0.358 4.789,0.229 6.899,-1.077 1.443,-0.895 3.083,-1.15 4.712,-1.13 -1.483,0.697 -2.892,1.5 -4.145,2.536 -1.862,1.761 -4.042,1.203 -6.478,1.873 -3.534,0.972 -5.714,3.821 -8.123,5.612 2.001,-0.087 3.841,-0.483 5.49,-2.183 0.796,-0.821 1.743,-1.432 3.223,-1.283 3.184,0.32 6.041,-0.425 8.322,-2.768 1.157,-1.188 2.328,-1.233 3.493,-1.161 -1.871,3.86 -5.744,4.393 -9.949,5.227 -1.553,0.308 -2.463,1.66 -2.237,2.555 0.739,-0.615 1.494,-1.322 2.457,-1.208 5.199,0.618 9.745,-2.016 13.553,-6.907 0.911,0.034 1.65,0.019 2.558,-0.514 -0.684,1.484 -1.485,3.103 -3.107,4.048 -1.164,0.679 -2.257,0.881 -2.859,2.109 -0.471,0.958 -2.576,2.025 -4.053,2.949 2.928,-0.112 5.101,-1.58 6.979,-3.019 3.056,-2.342 5.883,-4.646 6.661,-7.469 l 2.166,-0.863 c -0.762,2.587 -1.919,5.76 -4.435,7.054 -1.078,0.554 -1.672,1.499 -2.167,2.511 5.497,-2.373 9.162,-7.486 10.548,-12.127 l 1.299,-0.485 c -1.031,2.002 -1.651,3.917 -1.773,5.919 0.552,-1.224 1.215,-2.278 2.254,-2.627 1.008,-0.341 1.567,-0.823 2.372,-1.65 6.183,3.982 12.487,4.507 19.896,-1.603 1.171,-0.966 3.104,0.293 1.736,0.901 -7.729,3.434 -13.724,7.128 -10.829,11.614 2.411,-1.737 4.354,-5.09 7.195,-5.934 l 0.283,1.62 c 0.151,0.856 1.011,0.926 1.837,-0.069 1.441,-1.739 2.912,-3.222 4.667,-4.388 -0.032,2.002 0.972,3.258 4.252,2.876 -1.894,1.749 -4.442,1.428 -7.357,2.143 -5.981,1.469 -8.228,5.103 -7.482,7.548 1.835,-1.768 3.806,-3.215 5.984,-4.189 l 0.32,1.675 c 0.245,1.281 1.384,1.117 1.519,-0.175 0.362,-1.237 1.171,-2.4 2.626,-2.52 3.434,-0.284 6.273,-0.889 8.35,-3 5.727,6.7 11.471,-3.646 1.557,-3.299 0.339,-3.034 3.756,-1.837 5.692,1.082 l 1.663,-0.136 0.857,-1.692 1.7,1.276 0.666,-0.963 1.83,1.092 0.757,-1.124 2.248,0.102 c 0.437,0.719 0.419,1.325 -0.055,1.818 -1.736,0.377 -2.616,0.857 -2.655,1.708 -0.131,2.771 4.415,4.391 6.636,2.46 0.91,-0.793 1.407,-2.143 0.537,-4.528 0.902,-1.101 1.229,-1.904 1.329,-3.177"
             style="fill:#ed1c24;fill-opacity:1;fill-rule:evenodd;stroke:none"
             id="path20" /></g><g
           id="g22"
           transform="translate(61.9671,163.529)"><path
             d="m 0,0 c 0.216,0.379 0.529,0.678 0.937,0.896 0.407,0.216 0.882,0.42 1.425,0.61 0.542,0.19 0.896,0.312 1.059,0.367 L 4.236,2.036 C 4.289,2.09 4.371,2.117 4.48,2.117 L 4.398,2.199 c 0.054,0 0.135,0.027 0.244,0.081 0.217,0.109 0.38,0.19 0.489,0.245 v 0.081 h 0.082 c 0.053,0.054 0.094,0.082 0.122,0.082 0.027,0 0.053,0.026 0.081,0.081 C 5.444,2.822 5.47,2.85 5.498,2.85 H 5.62 5.701 C 5.81,2.904 5.918,2.959 6.028,3.014 L 6.19,3.095 h 0.163 c 0.053,0 0.082,0.026 0.082,0.081 C 6.543,3.23 6.679,3.393 6.842,3.665 6.895,3.719 6.936,3.814 6.964,3.95 6.991,4.085 7.018,4.18 7.045,4.235 7.073,4.289 7.113,4.343 7.168,4.398 7.113,4.669 7.031,6.217 6.924,9.041 L 6.598,9.204 c 0,0.107 0.012,0.257 0.041,0.448 0.026,0.189 0.04,0.338 0.04,0.447 -0.055,0.109 -0.122,0.245 -0.204,0.408 -0.081,0.162 -0.109,0.298 -0.081,0.407 0.027,0.108 0.081,0.271 0.163,0.489 0.082,0.216 0.149,0.353 0.203,0.407 0.054,0.326 0.123,0.719 0.204,1.181 0.081,0.461 0.149,0.801 0.204,1.018 0.053,0.108 0.122,0.285 0.204,0.53 0.081,0.244 0.148,0.447 0.203,0.611 0,0.325 -0.081,0.855 -0.245,1.588 -0.162,0.733 -0.244,1.126 -0.244,1.181 0,0.163 -0.068,0.583 -0.203,1.262 -0.137,0.679 -0.232,1.208 -0.285,1.589 0,0.379 0.026,0.923 0.081,1.629 0.053,0.705 0.081,1.222 0.081,1.547 0,0.053 -0.04,0.15 -0.121,0.285 -0.082,0.136 -0.123,0.231 -0.123,0.286 0,0.108 0.054,0.23 0.163,0.366 0.109,0.135 0.163,0.23 0.163,0.285 0,0.163 -0.014,0.312 -0.041,0.448 -0.027,0.135 -0.069,0.244 -0.122,0.326 -0.055,0.082 -0.081,0.149 -0.081,0.203 0,0.054 0.053,0.109 0.162,0.164 l 0.164,0.081 c 0.053,0.651 0.081,1.167 0.081,1.548 L 6.842,28.019 H 6.679 c -0.109,0.054 0,0.19 0.326,0.408 0.108,0.378 0.175,0.826 0.204,1.343 0.026,0.516 0.026,0.95 0,1.304 -0.029,0.352 -0.069,0.8 -0.123,1.344 -0.055,0.542 -0.081,0.867 -0.081,0.977 0,0.163 0.026,0.448 0.081,0.855 0.054,0.407 0.054,0.664 0,0.774 L 6.76,35.187 c 0,0.053 0.054,0.122 0.164,0.204 0.107,0.081 0.162,0.148 0.162,0.203 0.108,0.759 0.353,1.737 0.733,2.932 0.054,0.108 0.123,0.353 0.204,0.733 0.081,0.38 0.163,0.652 0.244,0.815 0.082,0.163 0.164,0.407 0.245,0.733 0.081,0.326 0.176,0.597 0.285,0.814 0.108,0.217 0.271,0.353 0.489,0.407 0,0.054 -0.014,0.123 -0.041,0.204 -0.028,0.081 -0.028,0.123 0,0.123 H 9.448 9.53 c 0.053,0 0.067,0.053 0.041,0.162 -0.028,0.109 -0.028,0.163 0,0.163 0.026,0 0.135,0.013 0.325,0.041 0.19,0.026 0.285,0.067 0.285,0.122 0.164,0.054 0.285,0.135 0.367,0.244 0.082,0.109 0.285,0.163 0.611,0.163 0.108,0.053 0.176,0.095 0.203,0.122 0.028,0.028 0.068,0.042 0.123,0.042 0.325,0.053 0.99,0.107 1.995,0.162 1.004,0.054 1.67,0.054 1.996,0 0,-0.055 0.297,-0.136 0.896,-0.244 0.597,-0.055 1.004,-0.163 1.222,-0.326 h 0.325 c 0.164,0.054 0.245,0.054 0.245,0 0.053,0 0.162,-0.041 0.326,-0.122 0.163,-0.082 0.27,-0.122 0.325,-0.122 0.326,-0.11 0.855,-0.245 1.589,-0.407 0.733,-0.163 1.329,-0.327 1.792,-0.489 0.46,-0.163 0.745,-0.354 0.855,-0.57 0.163,-0.436 0.298,-1.44 0.407,-3.014 0.053,-0.435 0,-1.059 -0.163,-1.874 -0.163,-0.814 -0.272,-1.384 -0.325,-1.71 0,-0.218 0.04,-0.517 0.121,-0.896 0.082,-0.381 0.123,-0.652 0.123,-0.814 0,-0.381 -0.014,-1.168 -0.041,-2.362 -0.028,-1.195 0.013,-1.847 0.122,-1.955 v -0.204 -0.204 c 0,-0.109 0.041,-0.204 0.122,-0.285 0.082,-0.081 0.123,-0.15 0.123,-0.204 0.163,-0.76 0.244,-1.968 0.244,-3.624 v -2.647 c 0.053,-0.38 0.041,-0.747 -0.041,-1.099 -0.082,-0.354 -0.203,-0.734 -0.367,-1.141 -0.162,-0.407 -0.271,-0.72 -0.325,-0.937 l 0.163,-0.081 c 0.108,-0.109 0.23,-0.218 0.366,-0.326 0.135,-0.11 0.257,-0.217 0.366,-0.326 0.218,-0.38 0.272,-0.869 0.164,-1.466 0,-0.163 -0.11,-0.285 -0.326,-0.367 -0.218,-0.081 -0.326,-0.203 -0.326,-0.366 l 0.326,-0.163 v -0.773 c 0,-0.354 -0.028,-0.666 -0.081,-0.937 -0.11,-0.326 -0.218,-0.489 -0.327,-0.489 h -0.325 -0.326 c 0.38,-0.11 0.624,-0.231 0.733,-0.367 0.108,-0.136 0.163,-0.258 0.163,-0.367 0,-0.109 -0.055,-0.231 -0.163,-0.366 C 23.349,11.796 23.295,11.701 23.295,11.647 22.97,10.615 22.915,9.583 23.132,8.552 23.132,8.442 23.118,8.32 23.091,8.185 23.063,8.05 23.077,7.954 23.132,7.9 c 0,-0.054 0.041,-0.121 0.123,-0.203 0.081,-0.082 0.121,-0.163 0.121,-0.245 0,-0.081 -0.054,-0.217 -0.162,-0.407 C 23.105,6.854 23.051,6.732 23.051,6.678 22.941,6.136 23.023,5.62 23.295,5.131 c 0,-0.054 0.027,-0.15 0.081,-0.285 0.054,-0.136 0.109,-0.258 0.164,-0.367 0.107,-0.109 0.285,-0.231 0.529,-0.366 0.245,-0.136 0.366,-0.232 0.366,-0.285 0.109,-0.163 0.164,-0.354 0.164,-0.57 3.854,0 6.705,0.026 8.552,0.081 l 0.407,0.163 c 0.108,0.053 0.244,0.108 0.407,0.163 0.435,0.325 0.679,0.515 0.734,0.57 l 0.162,0.082 c 0.109,0.053 0.19,0.081 0.245,0.081 h -0.082 v 0.081 c 0.053,0.054 0.135,0.095 0.245,0.123 0.108,0.026 0.162,0.067 0.162,0.122 0.054,0 0.054,0.026 0,0.081 0,0.054 0.068,0.094 0.204,0.123 0.135,0.026 0.204,0.067 0.204,0.121 3.258,3.475 5.429,6.163 6.516,8.064 l -0.081,0.244 c 0.053,0.164 0.149,0.353 0.285,0.571 0.135,0.216 0.23,0.379 0.285,0.488 0,0.163 0.012,0.353 0.04,0.57 0.027,0.217 0.068,0.38 0.123,0.489 0.053,0.109 0.148,0.271 0.285,0.489 0.134,0.216 0.23,0.38 0.285,0.489 0.162,0.271 0.489,1.112 0.977,2.525 0.054,0.108 0.149,0.298 0.285,0.57 0.135,0.271 0.23,0.488 0.285,0.652 0.108,0.542 0.135,1.71 0.082,3.502 -0.055,0.434 -0.137,1.031 -0.245,1.792 -0.109,0.76 -0.163,1.304 -0.163,1.629 0,0.271 -0.014,0.815 -0.04,1.629 -0.029,0.815 -0.069,1.439 -0.122,1.874 -0.055,0.162 -0.137,0.297 -0.245,0.406 -0.109,0.109 -0.163,0.19 -0.163,0.245 0,0.163 0.027,0.326 0.081,0.489 l 0.082,0.244 c 0,0.163 -0.028,0.312 -0.082,0.448 -0.054,0.135 -0.109,0.257 -0.162,0.367 l -0.163,0.163 c 0,0.053 0.04,0.122 0.122,0.203 0.082,0.082 0.122,0.149 0.122,0.204 -0.109,0.597 -0.244,1.14 -0.407,1.629 h -0.082 l -0.162,-0.082 c -0.163,0.053 -0.109,0.245 0.162,0.57 -0.162,1.249 -0.842,2.905 -2.035,4.969 -0.055,0.108 -0.137,0.285 -0.245,0.53 -0.109,0.244 -0.218,0.46 -0.326,0.651 -0.11,0.19 -0.191,0.312 -0.244,0.366 h -0.244 c -0.055,0.054 -0.082,0.164 -0.082,0.327 l -0.082,0.244 c -1.14,1.629 -1.901,2.66 -2.28,3.095 -0.055,0 -0.625,0.461 -1.711,1.384 -0.272,0.164 -0.76,0.435 -1.466,0.815 -0.706,0.379 -1.113,0.652 -1.222,0.814 0,0.054 -0.081,0.109 -0.244,0.164 h -0.245 c -2.769,0.271 -5.647,0.135 -8.633,-0.408 -0.435,-0.109 -1.046,-0.231 -1.833,-0.366 -0.787,-0.136 -1.48,-0.259 -2.076,-0.367 -0.599,-0.109 -1.033,-0.191 -1.304,-0.244 l -0.57,-0.244 c -0.326,0 -0.666,-0.014 -1.018,-0.041 C 17.525,47.173 17.321,47.16 17.267,47.16 13.249,46.725 9.693,46.59 6.598,46.753 4.1,46.916 2.09,47.268 0.57,47.812 c -1.413,0.489 -3.013,1.248 -4.806,2.281 -1.791,1.03 -2.797,1.845 -3.013,2.443 -0.055,0.053 -0.218,0.231 -0.489,0.53 -0.273,0.297 -0.407,0.474 -0.407,0.529 l 0.081,0.081 0.082,0.082 c 0,0.053 -0.11,0.244 -0.326,0.57 -0.218,0.326 -0.354,0.515 -0.407,0.57 0,0.108 0.041,0.257 0.122,0.448 0.081,0.19 0.122,0.311 0.122,0.366 -0.055,0.272 -0.096,0.53 -0.122,0.774 -0.028,0.244 -0.055,0.42 -0.081,0.529 -0.028,0.109 -0.028,0.217 0,0.327 0.026,0.108 0.093,0.243 0.203,0.407 0.054,0.054 0.082,0.163 0.082,0.325 v 0.327 c 0.162,0.216 0.719,0.528 1.669,0.936 0.95,0.408 1.507,0.53 1.67,0.366 0.163,-0.109 0.271,-0.176 0.326,-0.203 0.053,-0.028 0.122,-0.041 0.203,-0.041 h 0.449 c 0.596,-0.109 1.03,-0.298 1.303,-0.57 0,-0.055 0.067,-0.041 0.203,0.04 0.135,0.082 0.23,0.123 0.286,0.123 0.053,-0.055 0.175,-0.163 0.366,-0.326 0.19,-0.163 0.312,-0.272 0.366,-0.325 0.38,-0.11 0.855,-0.218 1.426,-0.327 0.57,-0.109 1.018,-0.217 1.344,-0.325 0.326,-0.11 0.542,-0.273 0.651,-0.489 1.304,-2.335 3.312,-3.775 6.028,-4.317 2.715,-0.544 6.435,-0.435 11.159,0.326 0.652,0.108 1.6,0.298 2.851,0.57 1.248,0.271 2.199,0.461 2.85,0.571 4.724,0.759 9.639,1.085 14.743,0.976 0.108,0 0.705,-0.054 1.792,-0.162 0.163,-0.055 0.475,-0.082 0.937,-0.082 0.461,0 0.774,-0.055 0.936,-0.162 3.856,-1.576 7.562,-4.521 11.119,-8.838 3.555,-4.317 5.768,-8.214 6.637,-11.688 0.435,-1.629 0.638,-3.327 0.612,-5.091 C 61.509,27.598 61.4,26.24 61.211,25.29 61.02,24.34 60.708,22.969 60.274,21.177 60.165,20.959 60.084,20.566 60.03,19.996 59.975,19.426 59.934,18.909 59.908,18.448 59.88,17.987 59.867,17.728 59.867,17.675 59.432,15.773 58.808,14.009 57.993,12.38 57.668,11.782 57.354,11.375 57.057,11.158 56.758,10.941 56.446,10.534 56.121,9.937 L 55.957,9.285 C 54.436,7.276 52.889,5.62 51.315,4.317 51.152,4.154 50.934,4.004 50.663,3.869 50.39,3.733 50.147,3.61 49.93,3.502 L 49.604,3.339 c 0.108,0.163 0.19,0.326 0.244,0.489 0,0.271 -0.136,0.19 -0.407,-0.244 C 48.68,2.606 47.079,1.655 44.636,0.732 40.182,-0.896 36.273,-2.01 32.907,-2.607 32.581,-2.661 32.159,-2.716 31.644,-2.77 c -0.516,-0.055 -0.829,-0.081 -0.936,-0.081 -0.164,0 -0.408,-0.028 -0.734,-0.081 -0.325,-0.055 -0.652,-0.11 -0.977,-0.164 -0.272,0 -1.195,0.027 -2.769,0.082 -1.955,0.054 -3.857,0.082 -5.702,0.082 -0.272,0 -0.639,0.012 -1.099,0.04 -0.463,0.027 -0.856,0.013 -1.182,-0.04 -0.38,0 -0.814,-0.028 -1.303,-0.082 -0.489,-0.055 -0.815,-0.082 -0.977,-0.082 -1.303,-0.053 -2.961,-0.026 -4.969,0.082 C 8.987,-2.906 7.765,-2.851 7.33,-2.851 6.732,-2.906 6.176,-2.974 5.661,-3.055 5.145,-3.136 4.684,-3.217 4.276,-3.299 3.869,-3.381 3.584,-3.448 3.421,-3.503 3.041,-3.556 2.66,-3.666 2.281,-3.829 2.008,-3.937 1.819,-3.801 1.71,-3.421 1.655,-3.312 1.629,-3.231 1.629,-3.177 L 0.814,-3.421 0,-3.666 c 0,0.273 -0.055,0.706 -0.163,1.304 -0.11,0.596 -0.163,1.071 -0.163,1.425 0,0.353 0.108,0.664 0.326,0.937"
             style="fill:#ed1c24;fill-opacity:1;fill-rule:nonzero;stroke:none"
             id="path24" /></g><g
           id="g26"
           transform="translate(124.8878,196.2317)"><path
             d="M 0,0 C 0.244,0.189 0.692,0.419 1.344,0.692 1.995,0.963 2.918,1.045 4.113,0.936 6.665,0.773 9.949,0.651 13.969,0.57 c 4.018,-0.082 6.868,-0.069 8.552,0.041 4.235,0.325 7.547,0.053 9.937,-0.815 0.977,-0.325 1.737,-0.598 2.281,-0.814 1.248,-0.381 2.456,-0.937 3.625,-1.67 1.166,-0.733 1.75,-1.344 1.75,-1.833 0,-0.272 0.19,-0.489 0.57,-0.652 0.327,-0.162 0.543,-0.407 0.652,-0.732 0.38,-1.792 0.57,-2.933 0.57,-3.421 0.054,-0.273 0.245,-0.599 0.571,-0.978 0.27,-0.273 0.393,-0.489 0.366,-0.651 -0.028,-0.164 -0.177,-0.625 -0.448,-1.385 -0.543,-1.521 -1.372,-2.92 -2.484,-4.195 -1.113,-1.277 -2.268,-2.158 -3.461,-2.647 -0.762,-0.326 -1.141,-0.544 -1.141,-0.651 0,-0.111 0.652,-0.788 1.955,-2.037 1.303,-1.25 2.307,-2.146 3.014,-2.688 0.759,-0.598 1.71,-1.521 2.851,-2.769 1.14,-1.141 1.926,-1.82 2.361,-2.037 0.489,-0.218 0.733,-0.407 0.733,-0.57 0,-0.272 0.815,-1.168 2.444,-2.688 1.629,-1.521 2.606,-2.308 2.932,-2.362 0.489,-0.109 0.815,-0.435 0.978,-0.978 0.107,-0.488 0.705,-1.004 1.791,-1.546 1.032,-0.543 2.253,-0.978 3.666,-1.304 1.357,-0.379 3.502,-0.515 6.434,-0.407 2.878,0.163 4.399,0.163 4.562,0 0.162,-0.108 0.407,-0.163 0.732,-0.163 0.219,0 0.338,-0.054 0.368,-0.163 0.027,-0.109 0.013,-0.352 -0.04,-0.733 -0.109,-0.652 -0.328,-1.126 -0.653,-1.425 -0.326,-0.298 -0.951,-0.584 -1.873,-0.856 -1.521,-0.434 -3.842,-0.664 -6.964,-0.692 -3.124,-0.027 -5.58,0.15 -7.372,0.529 -1.902,0.435 -3.937,1.222 -6.109,2.362 -0.543,0.326 -1.52,0.815 -2.932,1.466 -2.987,1.467 -6.408,3.882 -10.263,7.25 -0.814,0.651 -1.71,1.357 -2.688,2.117 -1.032,0.815 -2.417,2.063 -4.153,3.747 -1.793,1.737 -3.395,3.095 -4.806,4.073 -2.716,1.845 -4.073,3.014 -4.073,3.503 0,0.488 0.231,0.826 0.692,1.017 0.461,0.19 1.398,0.394 2.811,0.611 4.072,0.542 6.651,1.249 7.737,2.118 0.923,0.76 1.357,2.497 1.303,5.213 -0.054,1.954 -0.706,3.366 -1.954,4.235 -0.815,0.597 -1.71,1.005 -2.688,1.222 -0.978,0.217 -2.607,0.326 -4.887,0.326 h -3.991 l -0.815,-0.814 -0.814,-0.897 0.162,-7.493 c 0.109,-5.16 0.082,-8.173 -0.081,-9.041 -0.218,-0.925 -0.231,-1.495 -0.041,-1.711 0.19,-0.217 0.257,-1.031 0.204,-2.443 -0.054,-1.358 -0.028,-2.092 0.081,-2.199 0.109,-0.11 0.164,-0.652 0.164,-1.629 0,-0.652 0.04,-1.1 0.121,-1.344 0.082,-0.245 0.312,-0.558 0.693,-0.937 0.379,-0.435 0.692,-0.692 0.936,-0.774 0.245,-0.081 0.638,-0.122 1.182,-0.122 0.922,-0.055 1.587,-0.191 1.995,-0.408 0.407,-0.217 0.556,-0.624 0.448,-1.221 -0.163,-0.652 -0.353,-1.14 -0.57,-1.467 -0.218,-0.378 -0.571,-0.582 -1.059,-0.61 -0.488,-0.027 -1.576,0.069 -3.258,0.285 -1.303,0.163 -4.235,0.244 -8.796,0.244 -4.291,0 -6.598,0.028 -6.924,0.081 -0.543,0.218 -0.679,0.788 -0.408,1.711 0.109,0.489 0.313,0.815 0.611,0.977 0.298,0.164 0.801,0.245 1.507,0.245 0.542,0.054 1.059,0.46 1.548,1.222 0.326,0.542 0.529,1.004 0.611,1.384 0.081,0.38 0.094,1.249 0.04,2.607 -0.054,1.845 -0.027,2.932 0.082,3.258 0.108,0.271 0.623,0.515 1.547,0.733 0.923,0.217 1.386,0.379 1.386,0.489 0,0.108 -0.259,0.393 -0.774,0.855 -0.517,0.461 -0.966,0.801 -1.344,1.019 -0.273,0.216 -0.436,2.551 -0.489,7.004 -0.109,4.126 -0.163,7.032 -0.163,8.715 0,0.869 -0.028,1.425 -0.082,1.67 -0.054,0.244 -0.217,0.475 -0.488,0.692 -0.489,0.271 -1.222,0.516 -2.199,0.734 -1.739,0.378 -2.607,0.977 -2.607,1.791 0,0.38 0.123,0.665 0.367,0.856"
             style="fill:#ed1c24;fill-opacity:1;fill-rule:nonzero;stroke:none"
             id="path28" /></g><g
           id="g30"
           transform="translate(194.7328,176.2351)"><path
             d="m 0,0 v 0.489 c -0.109,0.271 -0.192,0.542 -0.245,0.814 -0.053,0.108 -0.08,0.204 -0.08,0.285 0,0.082 0.027,0.122 0.08,0.122 h 0.083 C -0.219,1.764 -0.245,1.819 -0.245,1.873 -0.408,1.982 -0.517,2.308 -0.57,2.851 v 0.326 c -0.056,0.053 -0.109,0.122 -0.162,0.204 -0.057,0.081 -0.083,0.148 -0.083,0.203 -0.053,0.108 -0.068,0.23 -0.04,0.367 0.026,0.135 0.04,0.23 0.04,0.285 -0.053,0.162 -0.109,0.297 -0.163,0.406 -0.054,0.109 -0.109,0.19 -0.163,0.245 L -1.222,5.05 c -0.055,0.053 -0.055,0.108 0,0.163 l 0.081,0.163 c -0.055,0.271 -0.109,0.515 -0.162,0.733 -0.055,0.053 -0.082,0.108 -0.082,0.162 -0.055,0.054 -0.082,0.135 -0.082,0.245 0,0.108 -0.028,0.216 -0.081,0.326 H -1.629 L -1.711,6.76 -1.629,7.249 C -1.684,7.575 -1.766,7.954 -1.873,8.389 -1.928,8.443 -1.955,8.498 -1.955,8.552 -2.01,8.66 -2.118,8.742 -2.281,8.797 -2.499,8.035 -2.661,7.52 -2.77,7.249 -2.77,7.194 -2.784,7.127 -2.811,7.045 -2.839,6.964 -2.851,6.895 -2.851,6.842 -2.906,6.787 -2.92,6.72 -2.892,6.638 -2.865,6.556 -2.879,6.516 -2.932,6.516 -3.042,5.918 -3.286,5.036 -3.666,3.869 -4.046,2.7 -4.264,2.008 -4.317,1.792 -4.427,1.411 -4.724,0.76 -5.213,-0.163 h 1.14 0.122 c 0.027,0 0.053,0.013 0.082,0.041 0.026,0.027 0.068,0.041 0.122,0.041 C -3.584,-0.028 -3.368,0 -3.096,0 h 0.734 0.57 c 0.053,0 0.407,-0.081 1.06,-0.244 l 0.079,0.081 C -0.6,-0.055 -0.544,0 -0.491,0 -0.381,0.053 -0.245,0.081 -0.083,0.081 -0.03,0.081 0,0.053 0,0 m 17.267,-14.987 c 0,-0.055 -0.053,-0.136 -0.162,-0.245 -0.109,-0.109 -0.162,-0.19 -0.162,-0.244 -0.057,0 -0.083,-0.014 -0.083,-0.041 0,-0.028 -0.027,-0.014 -0.08,0.041 v -0.081 h -0.083 c -0.324,-0.163 -1.17,-0.271 -2.525,-0.326 v -0.082 h -0.163 -0.162 c -0.056,0 -0.109,-0.012 -0.162,-0.04 -0.057,-0.027 -0.096,-0.041 -0.123,-0.041 -0.03,0 -0.083,0.014 -0.162,0.041 -0.083,0.028 -0.153,0.04 -0.206,0.04 -0.109,0 -0.245,0.014 -0.408,0.042 -0.162,0.027 -0.271,0.04 -0.324,0.04 -0.053,0 -0.123,0.014 -0.202,0.041 -0.083,0.028 -0.153,0.04 -0.206,0.04 -0.162,0 -0.365,-0.012 -0.61,-0.04 -0.245,-0.027 -0.394,-0.068 -0.447,-0.123 -0.057,0 -0.206,-0.012 -0.448,-0.04 -0.245,-0.027 -0.45,-0.041 -0.613,-0.041 h -0.57 -0.57 c -0.053,0 -0.109,-0.012 -0.162,-0.041 -0.057,-0.026 -0.096,-0.04 -0.123,-0.04 H 8.388 l -0.079,0.081 c -0.109,0 -0.219,-0.027 -0.328,-0.081 H 7.818 v 0.081 c -0.215,0 -0.407,-0.027 -0.57,-0.081 H 7.086 c -0.272,0.054 -0.868,0.028 -1.793,-0.082 H 4.968 4.723 L 4.643,-16.29 H 4.56 4.481 c -0.275,0 -0.626,0.028 -1.061,0.081 H 3.258 c -0.162,0 -0.272,0.028 -0.325,0.082 H 2.688 2.443 L 2.28,-16.046 H 2.118 v 0.081 H 2.035 c 0,0.055 -0.027,0.082 -0.08,0.082 -0.109,0.108 -0.162,0.19 -0.162,0.245 -0.219,0.488 -0.275,0.786 -0.166,0.895 v 0.245 c 0,0.107 0.027,0.162 0.083,0.162 v 0.163 l 0.083,0.082 v 0.082 l 0.325,0.976 c 0.162,0.054 0.514,0.109 1.057,0.164 0.109,0.053 0.328,0.081 0.653,0.081 h 0.653 c -0.056,0.216 -0.408,1.167 -1.061,2.851 l -0.162,0.081 c -0.056,0.109 -0.096,0.245 -0.123,0.408 -0.026,0.162 -0.069,0.297 -0.122,0.407 0,0.054 -0.04,0.135 -0.123,0.244 -0.079,0.109 -0.136,0.216 -0.162,0.326 -0.027,0.108 -0.04,0.257 -0.04,0.448 0,0.19 -0.03,0.312 -0.083,0.366 0,0.272 -0.04,0.612 -0.123,1.019 -0.079,0.407 -0.149,0.692 -0.202,0.855 -0.053,0.163 -0.136,0.326 -0.245,0.488 -0.053,0.109 -0.08,0.217 -0.08,0.326 H 1.873 1.71 c -0.056,0 -0.109,-0.013 -0.162,-0.041 -0.057,-0.028 -0.096,-0.04 -0.123,-0.04 -0.026,0 -0.069,0.012 -0.122,0.04 -0.054,0.028 -0.11,0.041 -0.163,0.041 -0.109,0.054 -0.232,0.095 -0.368,0.123 -0.136,0.026 -0.232,0.04 -0.285,0.04 -0.053,0 -0.109,0.013 -0.162,0.041 -0.053,0.026 -0.11,0.068 -0.163,0.123 -0.109,0 -0.285,-0.029 -0.53,-0.083 -0.242,-0.054 -0.378,-0.081 -0.408,-0.081 -0.026,0 -0.148,-0.014 -0.365,-0.04 -0.217,-0.028 -0.38,-0.041 -0.488,-0.041 -0.11,0 -0.273,0.013 -0.489,0.041 -0.218,0.026 -0.381,0.04 -0.489,0.04 -0.054,0 -0.095,-0.014 -0.122,-0.04 -0.028,-0.028 -0.055,-0.041 -0.082,-0.041 h -0.121 l -0.082,0.081 h -0.245 c 0,-0.054 -0.013,-0.081 -0.04,-0.081 -0.028,0 -0.041,0.013 -0.041,0.041 0,0.026 -0.028,0.067 -0.081,0.121 H -3.91 c 0.054,-0.054 0.054,-0.081 0,-0.081 l -0.081,0.081 c -0.218,0.054 -0.733,0.054 -1.548,0 -0.055,0 -0.136,0.014 -0.244,0.041 -0.11,0.027 -0.164,0.013 -0.164,-0.041 l -0.081,-0.081 v 0.081 H -6.19 c -0.11,0.054 -0.245,0.083 -0.408,0.083 0.054,-0.164 -0.028,-0.463 -0.244,-0.897 -0.326,-0.761 -0.599,-1.547 -0.815,-2.362 0,-0.055 -0.014,-0.122 -0.04,-0.203 -0.029,-0.082 -0.069,-0.151 -0.123,-0.204 0,-0.055 0.013,-0.122 0.041,-0.204 0.027,-0.081 0.013,-0.15 -0.041,-0.204 0,-0.054 -0.041,-0.15 -0.122,-0.285 -0.081,-0.136 -0.122,-0.231 -0.122,-0.285 -0.218,-0.38 -0.326,-0.787 -0.326,-1.221 0,-0.055 -0.014,-0.123 -0.041,-0.204 -0.028,-0.081 -0.04,-0.177 -0.04,-0.285 0,-0.055 0.026,-0.15 0.081,-0.285 0.054,-0.136 0.082,-0.232 0.082,-0.285 -0.055,-0.326 -0.191,-0.679 -0.408,-1.059 0.217,-0.055 0.461,-0.055 0.734,0 0.053,0 0.094,-0.014 0.121,-0.04 0.028,-0.029 0.054,-0.041 0.082,-0.041 0.027,0 0.053,0.012 0.082,0.041 0.026,0.026 0.053,0.04 0.081,0.04 0.026,0 0.068,-0.028 0.122,-0.081 h 0.082 c 0.163,-0.055 0.325,-0.055 0.488,0 h 0.082 c 0.054,0.053 0.094,0.081 0.122,0.081 0.027,0 0.067,0.027 0.122,0.081 l 0.081,0.082 c 0.164,0.053 0.434,0 0.815,-0.163 0.216,-0.163 0.353,-0.244 0.407,-0.244 0.053,-0.055 0.082,-0.11 0.082,-0.164 0.054,0 0.082,-0.135 0.082,-0.406 l 0.081,-0.082 0.081,-0.163 -0.162,-1.629 c 0,-0.054 -0.056,-0.136 -0.164,-0.244 L -5.458,-15.72 H -5.539 -5.62 v -0.082 h -0.082 v -0.081 h -0.081 c -0.381,-0.163 -1.222,-0.216 -2.525,-0.163 v -0.081 h -0.163 -0.122 -0.123 -0.162 -0.163 l -0.082,0.081 c -0.109,0 -0.232,0.014 -0.367,0.041 -0.135,0.028 -0.258,0.04 -0.366,0.04 h -0.081 c -0.11,0.055 -0.191,0.082 -0.244,0.082 -0.11,0.055 -0.273,0.081 -0.489,0.081 l -0.326,-0.081 c -0.055,0 -0.191,-0.013 -0.408,-0.04 -0.217,-0.028 -0.38,-0.042 -0.488,-0.042 -0.11,0 -0.272,0.014 -0.489,0.042 -0.217,0.027 -0.354,0.04 -0.407,0.04 h -0.123 -0.081 -0.122 -0.082 c -0.054,0.055 -0.136,0.055 -0.244,0 -0.055,0 -0.081,0.014 -0.081,0.041 0,0.028 -0.029,0.04 -0.082,0.04 h -0.407 v -0.081 l -0.163,0.081 c -0.272,0.054 -0.761,0.027 -1.466,-0.081 h -0.245 -0.244 v -0.082 h -0.162 v 0.082 c -0.164,-0.054 -0.463,-0.054 -0.896,0 h -0.245 -0.244 -0.244 c -0.218,0 -0.354,0.028 -0.408,0.081 h -0.081 v -0.081 0.081 h -0.081 l -0.083,0.082 -0.162,0.163 c -0.055,0 -0.082,0.026 -0.082,0.081 -0.272,0.379 -0.354,0.624 -0.244,0.733 v 0.245 c 0,0.107 0.027,0.162 0.082,0.162 0,0.054 -0.029,0.109 -0.082,0.163 0.053,0.054 0.082,0.109 0.082,0.164 l 0.325,0.895 c 0.164,0.109 0.516,0.217 1.059,0.326 h 0.896 c -0.055,0.163 -0.081,0.271 -0.081,0.326 0.054,0.053 0.216,0.271 0.489,0.652 0.107,0.107 0.244,0.244 0.406,0.406 0.164,0.164 0.272,0.272 0.327,0.327 0,0.053 0.026,0.122 0.081,0.203 0.053,0.082 0.108,0.149 0.163,0.204 0.053,0.054 0.122,0.149 0.203,0.285 0.082,0.135 0.149,0.244 0.204,0.325 0.054,0.082 0.109,0.149 0.163,0.204 0,0.054 0.013,0.081 0.041,0.081 0.026,0 0.04,0.028 0.04,0.082 v 0.082 c 0.054,0.163 0.176,0.393 0.367,0.692 0.189,0.298 0.312,0.502 0.367,0.611 l 0.488,0.489 v 0.162 c -0.055,0.054 -0.081,0.109 -0.081,0.163 0,0.054 0.053,0.135 0.163,0.245 0,0.053 0.026,0.081 0.081,0.081 0.054,0 0.081,0.027 0.081,0.082 0,0.053 0.013,0.108 0.042,0.162 0.026,0.054 0.067,0.109 0.121,0.164 0.109,0.325 0.19,0.596 0.245,0.814 l -0.081,0.163 c 0.053,0.108 0.107,0.23 0.162,0.367 0.054,0.135 0.082,0.256 0.082,0.366 0,0.054 0.013,0.149 0.041,0.285 0.026,0.135 0.053,0.244 0.081,0.326 0.026,0.082 0.081,0.189 0.163,0.326 0.081,0.134 0.122,0.23 0.122,0.285 0.108,0.271 0.23,0.57 0.366,0.896 0.135,0.325 0.231,0.57 0.285,0.733 0.054,0.108 0.135,0.244 0.245,0.407 0.108,0.163 0.163,0.298 0.163,0.407 0.108,0.271 0.216,0.678 0.325,1.222 0.109,0.542 0.19,0.842 0.245,0.896 0,0.108 0.068,0.434 0.204,0.977 0.135,0.543 0.23,0.95 0.285,1.222 0.108,0.326 0.257,0.746 0.448,1.263 0.189,0.515 0.312,0.882 0.366,1.1 0.054,0.053 0.081,0.135 0.081,0.244 0,0.108 0.014,0.203 0.041,0.285 0.027,0.081 0.068,0.148 0.123,0.203 L -8.96,6.19 c 0.054,0.109 0.094,0.216 0.122,0.326 0.027,0.108 0.041,0.216 0.041,0.326 v 0.082 c 0.053,0.053 0.094,0.093 0.122,0.121 0.027,0.028 0.068,0.068 0.123,0.123 0.162,0.489 0.297,0.867 0.406,1.14 h -0.081 v 0.081 l 0.163,0.245 c 0.217,0.434 0.678,1.711 1.385,3.828 0,0.108 0.067,0.312 0.203,0.611 0.135,0.298 0.204,0.475 0.204,0.53 v 0.162 c 0,0.054 0.027,0.109 0.082,0.163 0.053,0.053 0.107,0.109 0.162,0.163 0.216,0.597 0.57,1.303 1.059,2.117 0.054,0.054 0.135,0.231 0.245,0.53 0.108,0.298 0.203,0.502 0.285,0.611 0.081,0.108 0.203,0.271 0.366,0.489 -0.11,0.488 -0.081,0.787 0.082,0.896 l -0.082,0.163 v 0.081 h 0.082 c 0.053,0 0.081,0.013 0.081,0.041 v 0.122 l -0.081,0.082 0.081,0.081 c 0.109,0.054 0.163,0.109 0.163,0.163 0.053,0.053 0.094,0.122 0.122,0.203 0.027,0.082 0.123,0.149 0.285,0.204 0,0.054 0.027,0.109 0.081,0.163 0.163,0.108 0.502,0.285 1.019,0.53 0.515,0.244 0.827,0.338 0.937,0.285 l 0.488,0.081 c 0.324,0 0.543,-0.028 0.653,-0.081 0.053,0 0.106,0.026 0.162,0.081 l 0.162,0.081 c 0.053,0 0.123,-0.027 0.206,-0.081 0.079,-0.055 0.146,-0.081 0.202,-0.081 h 0.895 c 0.434,0 0.775,-0.014 1.017,-0.041 0.246,-0.028 0.421,-0.122 0.531,-0.285 0.218,-0.326 0.57,-1.059 1.06,-2.2 0.106,-0.325 0.229,-0.842 0.365,-1.547 0.136,-0.706 0.258,-1.195 0.368,-1.466 0,-0.218 0.079,-0.476 0.245,-0.774 0.162,-0.299 0.268,-0.53 0.325,-0.692 0.109,-0.326 0.298,-0.951 0.57,-1.873 0.272,-0.924 0.46,-1.548 0.57,-1.874 0.053,-0.054 0.083,-0.136 0.083,-0.244 0,-0.11 0.026,-0.163 0.079,-0.163 0,-0.11 0.053,-0.191 0.163,-0.245 L 6.924,9.286 C 7.195,8.579 7.56,7.465 8.024,5.946 8.485,4.425 8.743,3.637 8.796,3.584 8.905,3.203 8.985,2.851 9.041,2.525 9.094,2.199 9.134,1.845 9.164,1.466 9.19,1.085 9.204,0.786 9.204,0.57 9.204,0.515 9.313,0.42 9.529,0.285 9.747,0.149 9.857,0.053 9.857,0 c 0.215,-0.273 0.377,-0.651 0.487,-1.14 0.053,-0.163 0.04,-0.299 -0.04,-0.408 -0.083,-0.109 -0.123,-0.244 -0.123,-0.407 l 0.246,-0.082 c 0,-0.162 0.053,-0.394 0.162,-0.691 0.106,-0.3 0.189,-0.558 0.245,-0.774 v -0.326 c 0,-0.055 -0.029,-0.109 -0.082,-0.163 l -0.325,-0.081 c 0.215,-0.055 0.364,-0.123 0.447,-0.204 0.08,-0.081 0.136,-0.163 0.163,-0.245 0.026,-0.081 0.039,-0.204 0.039,-0.366 v -0.244 c 0.053,-0.869 0.272,-1.711 0.653,-2.526 0.053,0 0.08,-0.054 0.08,-0.162 0,-0.11 0.013,-0.192 0.043,-0.245 0.026,-0.054 0.066,-0.109 0.122,-0.163 0.053,-0.055 0.107,-0.109 0.163,-0.162 v -0.327 -0.325 c 0.053,-0.326 0.162,-0.625 0.325,-0.896 v 0.081 l 0.083,-0.081 c 0,-0.055 0.009,-0.095 0.039,-0.123 0.027,-0.027 0.067,-0.081 0.123,-0.162 0.053,-0.081 0.106,-0.15 0.162,-0.204 0.053,-0.055 0.163,-0.109 0.325,-0.163 l 0.245,-0.081 c 0.216,-0.218 0.325,-0.517 0.325,-0.896 0,-0.055 0.053,-0.123 0.163,-0.204 0.109,-0.081 0.192,-0.122 0.245,-0.122 0.053,-0.11 0.215,-0.218 0.49,-0.326 h 0.163 l 0.079,-0.081 c 0.163,-0.055 0.355,-0.055 0.57,0 0,0.054 0.027,0.081 0.083,0.081 0.053,0 0.093,0.013 0.123,0.041 0.026,0.027 0.053,0.067 0.079,0.122 0.027,0.053 0.07,0.081 0.123,0.081 0.162,0.054 0.434,0 0.815,-0.162 0.216,-0.109 0.352,-0.191 0.408,-0.244 0.053,-0.055 0.08,-0.11 0.08,-0.164 0.056,0 0.082,-0.162 0.082,-0.489 l 0.083,-0.162 0.08,-0.082 v -0.651 c -0.053,-0.435 -0.11,-0.788 -0.163,-1.059"
             style="fill:#ed1c24;fill-opacity:1;fill-rule:nonzero;stroke:none"
             id="path32" /></g><g
           id="g34"
           transform="translate(255.1335,177.3213)"><path
             d="M 0,0 V 0.081 L -0.083,0 Z M 16.778,3.991 C 16.724,3.937 16.588,3.828 16.371,3.665 L 16.127,3.502 H 16.044 15.963 V 3.42 H 15.842 15.72 V 3.339 H 15.638 15.557 C 15.231,3.23 14.823,3.177 14.334,3.177 V 3.095 c 0.217,-0.163 0.421,-0.354 0.612,-0.57 0.189,-0.218 0.353,-0.476 0.489,-0.774 0.134,-0.299 0.243,-0.53 0.324,-0.692 0.083,-0.163 0.149,-0.448 0.204,-0.856 0.055,-0.407 0.095,-0.665 0.123,-0.773 0.026,-0.11 0.053,-0.408 0.081,-0.897 0.027,-0.488 0.041,-0.76 0.041,-0.814 l 0.325,-0.081 c 0,-0.11 -0.013,-0.232 -0.04,-0.366 -0.028,-0.137 -0.041,-0.259 -0.041,-0.368 0,-0.054 0.041,-0.135 0.123,-0.244 0.081,-0.109 0.122,-0.204 0.122,-0.285 0,-0.081 -0.069,-0.204 -0.204,-0.366 -0.135,-0.163 -0.203,-0.273 -0.203,-0.326 -0.055,-0.163 -0.151,-0.407 -0.285,-0.733 -0.136,-0.326 -0.259,-0.598 -0.367,-0.815 0,-0.109 -0.069,-0.244 -0.203,-0.407 -0.136,-0.163 -0.232,-0.272 -0.285,-0.326 -0.055,-0.218 -0.097,-0.558 -0.123,-1.018 -0.028,-0.462 -0.042,-0.801 -0.042,-1.019 -0.217,-1.031 -0.406,-1.71 -0.57,-2.035 -0.109,-0.164 -0.624,-0.762 -1.546,-1.792 -0.054,-0.055 -0.083,-0.136 -0.083,-0.245 0,-0.109 -0.028,-0.19 -0.081,-0.244 -0.054,-0.055 -0.136,-0.11 -0.243,-0.163 h -0.246 c -0.109,-0.109 -0.175,-0.204 -0.203,-0.285 -0.027,-0.082 -0.055,-0.151 -0.082,-0.204 -0.028,-0.054 -0.039,-0.109 -0.039,-0.163 h -0.204 -0.204 c -0.109,-0.055 -0.259,-0.162 -0.447,-0.325 -0.193,-0.164 -0.34,-0.3 -0.45,-0.407 h 0.082 l 0.082,-0.082 -0.488,-0.082 c -0.327,-0.163 -0.68,-0.366 -1.059,-0.61 -0.381,-0.245 -0.763,-0.503 -1.14,-0.774 -0.382,-0.273 -0.653,-0.436 -0.816,-0.489 -0.054,-0.109 -0.217,-0.204 -0.489,-0.285 -0.271,-0.081 -0.435,-0.15 -0.488,-0.204 v -0.162 c -0.055,-0.055 -0.123,-0.069 -0.204,-0.042 -0.081,0.028 -0.149,0.042 -0.204,0.042 -0.487,-0.218 -1.004,-0.381 -1.546,-0.489 -0.327,-0.109 -0.87,-0.326 -1.629,-0.652 -1.251,-0.435 -2.118,-0.733 -2.607,-0.896 -0.978,-0.272 -2.091,-0.462 -3.341,-0.57 -2.878,-0.38 -5.538,-0.515 -7.98,-0.407 -0.978,0.053 -2.363,0.216 -4.155,0.488 -2.391,0.38 -4.398,0.76 -6.027,1.14 -1.576,0.218 -2.852,0.461 -3.829,0.734 -1.086,0.325 -2.688,0.949 -4.806,1.873 -0.163,0.054 -0.34,0.109 -0.529,0.163 -0.19,0.053 -0.366,0.108 -0.53,0.163 -0.217,0.108 -0.434,0.271 -0.651,0.489 -0.544,0.271 -1.087,0.542 -1.629,0.814 -0.706,0.38 -1.412,0.786 -2.118,1.222 -3.53,2.334 -6.463,5.484 -8.796,9.448 -0.598,1.086 -0.978,1.846 -1.14,2.281 -0.055,0.163 -0.136,1.004 -0.246,2.525 -0.109,0.705 -0.651,1.941 -1.629,3.706 -0.977,1.764 -1.466,2.701 -1.466,2.81 -0.055,0.163 -0.109,0.244 -0.162,0.244 -0.055,-0.054 -0.095,-0.068 -0.123,-0.04 -0.027,0.026 -0.013,0.094 0.041,0.204 0.108,0.705 0.908,1.315 2.403,1.832 1.493,0.516 2.348,1.045 2.565,1.589 l -0.162,0.081 c 0,0.162 0.081,0.366 0.244,0.611 0.164,0.244 0.326,0.448 0.488,0.61 l 0.246,0.245 c 0.489,0.705 1.03,1.438 1.629,2.2 -0.217,0.325 -0.3,0.57 -0.246,0.732 0.164,0.76 0.599,1.683 1.305,2.77 0.162,0.271 0.923,1.167 2.28,2.688 0.108,0.053 0.285,0.23 0.53,0.529 0.244,0.298 0.448,0.53 0.61,0.692 0.379,0.434 1.004,1.004 1.874,1.711 l 1.221,0.977 c 0,0.054 0.053,0.109 0.163,0.163 0.109,0.053 0.164,0.108 0.164,0.163 0.053,0 0.121,0.041 0.202,0.122 0.083,0.081 0.123,0.149 0.123,0.204 1.412,1.031 3.148,2.063 5.213,3.095 0.38,0.216 1.329,0.597 2.85,1.14 l 0.164,0.163 c 0.108,0.054 0.216,0.109 0.325,0.163 l 0.081,0.082 c 0.327,0.216 0.761,0.407 1.305,0.57 0.162,0.053 0.285,0.068 0.366,0.04 0.081,-0.028 0.204,-0.014 0.366,0.041 l 0.162,0.163 c 0.055,0 0.259,0.054 0.612,0.163 0.353,0.108 0.664,0.217 0.936,0.326 h 0.489 v -0.081 c 0.164,0.162 0.597,0.297 1.304,0.407 0.922,0.163 1.873,0.379 2.85,0.652 0.054,0 0.15,0.012 0.286,0.04 0.134,0.027 0.23,0.041 0.285,0.041 0.053,0 0.122,0.012 0.203,0.04 0.082,0.027 0.163,0.053 0.244,0.082 0.083,0.027 0.204,0.04 0.368,0.04 h 0.325 c 0.489,0.054 0.977,0.109 1.466,0.163 0.053,0.054 0.134,0.082 0.244,0.082 0.109,0 0.217,0.027 0.326,0.082 0.053,0 0.149,0.026 0.285,0.081 0.135,0.053 0.231,0.081 0.285,0.081 0.542,0.109 1.331,0.109 2.362,0 0.706,-0.109 1.113,-0.191 1.223,-0.244 0.162,-0.055 0.296,-0.082 0.406,-0.082 0.054,0 0.083,-0.028 0.083,-0.081 h 1.872 c 4.289,-0.109 7.058,-0.407 8.309,-0.896 0.325,-0.055 0.678,-0.136 1.059,-0.245 0,0.054 0.053,0.082 0.162,0.082 0.053,0 0.082,0.013 0.082,0.041 0,0.026 0.026,0.041 0.081,0.041 1.085,0.434 1.765,0.596 2.036,0.488 h 0.489 c 0.327,0.053 0.542,0.053 0.651,0 l 0.163,0.082 h 0.164 0.162 c 0.053,-0.055 0.108,-0.082 0.163,-0.082 0.164,0 0.434,0.027 0.815,0.082 0.38,0.053 0.693,0.082 0.936,0.082 0.246,0 0.421,-0.056 0.531,-0.164 0.107,-0.109 0.243,-0.38 0.406,-0.814 0.054,-0.109 0.068,-0.285 0.041,-0.53 -0.028,-0.244 -0.015,-0.421 0.041,-0.529 0,-0.055 0.027,-0.136 0.082,-0.244 0.053,-0.11 0.107,-0.164 0.162,-0.164 0,-0.109 0.041,-0.299 0.123,-0.57 0.081,-0.272 0.175,-0.461 0.285,-0.57 0,-0.054 0.011,-0.095 0.039,-0.122 0.027,-0.028 0.055,-0.04 0.082,-0.04 h 0.122 c 0.108,-0.163 0.257,-0.436 0.449,-0.816 0.189,-0.38 0.285,-0.624 0.285,-0.732 0.053,0 0.082,-0.326 0.082,-0.978 0,0.054 0.162,0.054 0.488,0 0.163,-0.054 0.271,-0.163 0.325,-0.325 0,-0.055 -0.04,-0.123 -0.122,-0.204 -0.082,-0.081 -0.121,-0.15 -0.121,-0.204 l 0.162,0.082 c 0,-0.055 0.027,-0.137 0.081,-0.244 0.053,-0.11 0.11,-0.218 0.164,-0.326 0,-0.11 -0.028,-0.163 -0.083,-0.163 l -0.162,-0.081 -0.162,-0.082 c 0.324,0 0.489,-0.055 0.489,-0.163 v -0.082 c 0,-0.38 0.134,-0.732 0.406,-1.059 v -0.081 c 0,-0.055 0.013,-0.081 0.041,-0.081 0.026,0 0.068,-0.014 0.123,-0.041 0.053,-0.028 0.094,-0.054 0.121,-0.082 0.028,-0.027 0.013,-0.069 -0.04,-0.122 v -0.163 c 0,-0.217 0.107,-0.38 0.326,-0.488 0.053,-0.055 0.093,-0.096 0.121,-0.122 0.027,-0.029 0.068,-0.055 0.123,-0.082 0.053,-0.028 0.134,-0.04 0.243,-0.04 h 0.246 c 0.215,-0.11 0.243,-0.489 0.081,-1.141 -0.109,-0.381 -0.191,-0.598 -0.244,-0.651 -0.109,-0.164 -0.192,-0.273 -0.245,-0.326 -0.055,-0.055 -0.408,-0.192 -1.059,-0.408 L 12.951,19.711 12.869,19.63 C 12.815,19.575 12.758,19.548 12.705,19.548 L 8.877,18.49 C 8.768,18.435 8.564,18.421 8.266,18.449 7.968,18.475 7.79,18.49 7.737,18.49 c -0.055,0 -0.069,0.012 -0.041,0.04 0.028,0.027 0.028,0.041 0,0.041 -0.028,0 -0.055,-0.014 -0.081,-0.041 -0.029,-0.028 -0.055,-0.04 -0.082,-0.04 -0.028,0 -0.041,0.012 -0.041,0.04 v 0.081 c 0,0.027 -0.027,0.041 -0.081,0.041 L 7.33,18.571 v 0.081 C 7.112,18.76 6.909,18.896 6.72,19.06 6.527,19.222 6.406,19.357 6.352,19.466 6.297,19.575 6.203,19.779 6.067,20.078 5.931,20.375 5.836,20.553 5.782,20.607 L 5.619,20.525 c 0,0.054 -0.013,0.109 -0.041,0.164 -0.027,0.053 -0.04,0.094 -0.04,0.121 0,0.028 -0.028,0.054 -0.081,0.082 -0.055,0.027 -0.096,0.053 -0.123,0.082 -0.028,0.026 -0.028,0.081 0,0.163 0.027,0.081 0.042,0.148 0.042,0.203 0,0.108 -0.015,0.23 -0.042,0.367 -0.028,0.135 -0.041,0.23 -0.041,0.285 v 0.204 0.203 C 5.238,22.453 5.13,22.562 4.968,22.725 4.804,22.888 4.71,22.982 4.683,23.01 4.655,23.037 4.574,23.132 4.438,23.295 4.302,23.458 4.194,23.593 4.113,23.702 4.032,23.811 3.949,23.973 3.868,24.191 3.787,24.407 3.747,24.57 3.747,24.68 H 3.664 C 3.555,24.733 3.502,24.787 3.502,24.842 3.447,24.896 3.351,24.951 3.217,25.005 3.081,25.059 3.013,25.114 3.013,25.169 L 2.931,25.087 2.85,25.169 2.769,25.087 v 0.082 0.081 c 0,0.053 -0.015,0.094 -0.041,0.122 -0.029,0.027 -0.04,0.068 -0.04,0.122 v 0.081 c 0,0.054 -0.042,0.068 -0.123,0.041 C 2.484,25.589 2.414,25.575 2.361,25.575 H 2.28 l -0.081,0.082 v 0.082 H 2.116 c -0.055,0 -0.081,0.026 -0.081,0.081 H 2.116 2.035 1.954 l 0.081,0.081 C 1.98,25.955 1.926,25.983 1.873,25.983 L 1.791,25.901 v 0.163 c 0,0.053 -0.217,0.135 -0.651,0.245 L 1.057,26.39 C 1.003,26.444 0.948,26.471 0.895,26.471 V 26.39 c -0.055,0 -0.081,0.026 -0.081,0.081 v 0.082 c -0.11,0.053 -0.272,0.216 -0.489,0.489 -0.055,0 -0.123,0.026 -0.204,0.081 -0.081,0.053 -0.136,0.108 -0.162,0.163 -0.029,0.053 -0.097,0.122 -0.204,0.203 -0.11,0.082 -0.163,0.15 -0.163,0.204 -0.489,0 -0.924,0.027 -1.304,0.081 -4.235,0.489 -7.684,0.435 -10.344,-0.162 -3.964,-0.814 -7.656,-2.281 -11.078,-4.399 -1.465,-0.869 -2.823,-2.036 -4.071,-3.502 -1.304,-1.521 -2.473,-3.218 -3.503,-5.091 -1.033,-1.873 -1.684,-3.408 -1.954,-4.602 l -0.083,-0.651 c 0.326,-0.273 0.515,-0.544 0.57,-0.815 0.109,-0.435 0.23,-1.058 0.368,-1.873 0.134,-0.814 0.23,-1.331 0.285,-1.548 0.053,-0.38 0.094,-0.977 0.121,-1.792 0.028,-0.814 0.068,-1.439 0.123,-1.873 0.053,-0.217 0.175,-0.516 0.366,-0.896 0.19,-0.38 0.285,-0.598 0.285,-0.652 0.923,-2.39 1.602,-4.101 2.036,-5.131 0.108,0.108 0.246,0.244 0.408,0.407 2.28,-2.661 3.962,-4.371 5.049,-5.131 0.217,-0.163 0.435,-0.326 0.653,-0.489 l 0.406,-0.082 c 0.706,-0.272 1.52,-0.625 2.445,-1.058 0.923,-0.436 1.466,-0.68 1.629,-0.733 0.271,-0.11 0.515,-0.218 0.732,-0.326 l 0.164,-0.082 c 0.215,-0.055 0.378,-0.136 0.489,-0.244 0.108,-0.11 0.27,-0.191 0.487,-0.245 l 0.245,0.082 c 0.27,-0.109 1.005,-0.244 2.199,-0.407 l 0.652,-0.163 -0.082,-0.244 c 0.218,0.162 0.869,0.216 1.956,0.162 1.41,-0.055 2.795,0.109 4.153,0.489 l 0.815,0.163 0.57,0.326 1.059,0.244 c 0.704,0.217 1.331,0.516 1.872,0.896 l 0.735,0.57 0.57,0.733 c 0.326,0.326 0.677,0.624 1.059,0.896 0.379,0.272 0.759,0.516 1.14,0.733 0.379,0.217 0.623,0.353 0.732,0.408 0.164,0.108 0.327,0.244 0.489,0.407 -0.055,0.163 -0.136,0.393 -0.244,0.692 -0.109,0.298 -0.19,0.542 -0.245,0.734 -0.055,0.189 -0.136,0.338 -0.243,0.447 -0.11,0.163 -0.082,0.271 0.081,0.326 0.107,0.108 0.19,0.19 0.245,0.244 -0.055,-0.054 -0.326,0.082 -0.815,0.408 -0.272,0.108 -0.381,0.216 -0.327,0.326 0,0.053 0.095,0.067 0.285,0.04 0.191,-0.028 0.259,-0.014 0.204,0.041 l -0.244,0.082 c 0,0.053 -0.014,0.122 -0.041,0.203 -0.028,0.082 -0.04,0.175 -0.04,0.285 0.053,0.054 0.163,0.082 0.325,0.082 h 0.245 c 0.163,-0.055 0.27,-0.082 0.325,-0.082 -0.489,0.217 -0.732,0.353 -0.732,0.407 l 0.162,0.082 c 0.272,0.326 0.272,0.678 0,1.059 v 0.163 0.122 c 0,0.027 -0.055,0.053 -0.162,0.082 -0.11,0.026 -0.163,0.053 -0.163,0.081 0,0.026 0.053,0.094 0.163,0.204 l 0.162,0.081 c 0.055,0.271 -0.055,0.515 -0.325,0.733 -0.054,0 -0.096,0.027 -0.122,0.081 -0.029,0.054 -0.096,0.109 -0.204,0.164 -0.055,0 -0.191,0.026 -0.408,0.081 l -0.406,0.081 c -0.381,0.216 -0.273,0.624 0.325,1.222 v 0.162 c 0,0.054 -0.217,0.19 -0.651,0.408 L -0.897,1.221 C -0.951,1.33 -1.006,1.385 -1.059,1.385 L -1.142,1.303 v 0.082 0.081 c -0.109,0.108 -0.243,0.325 -0.406,0.652 l -0.083,0.081 c -0.054,0.108 -0.094,0.19 -0.121,0.244 -0.028,0.053 -0.069,0.136 -0.122,0.245 -0.11,0 -0.787,-0.055 -2.037,-0.163 -0.055,0 -0.19,0.012 -0.407,0.04 -0.218,0.028 -0.325,0.014 -0.325,-0.04 L -4.725,2.443 c -0.054,0 -0.096,0.013 -0.122,0.041 -0.028,0.027 -0.07,0.041 -0.123,0.041 -0.379,0.054 -0.787,0.135 -1.221,0.244 -0.055,0 -0.162,0.013 -0.327,0.041 -0.162,0.026 -0.271,0.054 -0.324,0.081 -0.055,0.027 -0.136,0.054 -0.246,0.082 -0.109,0.026 -0.203,0.053 -0.285,0.081 -0.081,0.027 -0.121,0.068 -0.121,0.123 h -0.082 -0.082 v 0.081 c 0,0.053 -0.013,0.067 -0.039,0.041 -0.029,-0.029 -0.042,-0.029 -0.042,0 V 3.42 3.502 C -7.794,3.665 -7.82,3.773 -7.82,3.828 v 0.081 c 0.053,0.76 0.134,1.168 0.244,1.222 0.054,0.053 0.109,0.163 0.164,0.326 0.053,0.163 0.107,0.271 0.162,0.326 v 0.082 0.121 0.122 h 0.081 c 0.053,0.109 0.123,0.272 0.204,0.489 0.081,0.216 0.149,0.38 0.204,0.489 0.053,0.108 0.108,0.176 0.162,0.204 0.053,0.026 0.123,0.026 0.204,0 0.081,-0.028 0.176,-0.041 0.285,-0.041 0.108,0 0.217,-0.028 0.327,-0.082 0.107,0 0.311,-0.027 0.609,-0.081 0.299,-0.055 0.531,-0.109 0.693,-0.162 0.108,0 0.245,0.012 0.408,0.04 0.162,0.027 0.27,0.041 0.326,0.041 h 0.733 0.732 0.651 0.083 0.163 c 0.053,0 0.107,0.026 0.162,0.081 h 0.081 c 0.434,0.054 1.114,0.108 2.037,0.163 0.923,0.053 1.466,0.081 1.629,0.081 0.109,0 0.787,-0.028 2.036,-0.081 0.053,0 0.135,0.053 0.244,0.163 L 5.049,7.494 C 5.265,7.547 5.565,7.575 5.946,7.575 6.054,7.575 6.148,7.547 6.231,7.494 6.312,7.439 6.406,7.412 6.516,7.412 l 0.081,0.082 c 0.108,0 0.285,0.012 0.529,0.04 0.245,0.027 0.449,0.041 0.611,0.041 L 8.064,7.494 c -0.055,-0.055 -0.055,-0.11 0,-0.164 0.162,0.164 0.46,0.217 0.894,0.164 0.706,-0.055 1.412,-0.055 2.118,0 h 0.204 0.163 c 0.026,0 0.067,0.012 0.122,0.04 0.053,0.027 0.123,0.041 0.204,0.041 0.081,0 0.176,-0.014 0.285,-0.041 0.108,-0.028 0.189,-0.04 0.244,-0.04 0.326,-0.055 0.653,-0.029 0.977,0.081 0.055,0 0.123,0.012 0.204,0.04 0.081,0.027 0.149,0.041 0.204,0.041 0.108,0 0.189,0.027 0.245,0.082 L 14.091,7.9 C 14.47,7.954 15.04,7.872 15.801,7.656 16.29,7.494 16.56,7.384 16.616,7.33 c 0.108,-0.054 0.216,-0.109 0.325,-0.163 0.053,0 0.053,-0.217 0,-0.651 L 17.103,6.353 17.267,6.19 C 17.267,6.136 17.226,5.851 17.145,5.335 17.064,4.818 16.941,4.37 16.778,3.991"
             style="fill:#ed1c24;fill-opacity:1;fill-rule:nonzero;stroke:none"
             id="path36" /></g><g
           id="g38"
           transform="translate(289.993,192.9324)"><path
             d="m 0,0 c -0.055,-0.055 -0.136,-0.109 -0.244,-0.162 -1.738,-1.413 -3.042,-2.825 -3.91,-4.236 -1.412,-2.281 -2.281,-4.372 -2.605,-6.272 -0.11,-0.598 -0.055,-1.547 0.162,-2.851 0.434,-3.041 0.949,-5.186 1.548,-6.434 0.215,-0.435 0.379,-0.734 0.489,-0.897 0.162,-0.272 0.406,-0.57 0.732,-0.895 2.008,-1.847 4.168,-3.38 6.476,-4.602 2.307,-1.222 4.166,-1.67 5.58,-1.344 1.574,0.325 3.148,1.411 4.723,3.258 0.109,0.108 0.271,0.596 0.488,1.466 0.11,0.434 0.272,0.949 0.489,1.547 l 0.245,0.815 c 0.108,0.271 0.231,0.448 0.367,0.529 0.134,0.082 0.23,0.285 0.285,0.612 l -0.081,0.325 c 0.053,0.326 0.162,1.249 0.324,2.769 l 0.246,0.734 c 0.107,-0.164 0.215,-0.191 0.324,-0.082 -0.162,0.217 -0.285,0.434 -0.366,0.652 -0.081,0.216 -0.122,0.407 -0.122,0.57 0,0.163 0.013,0.367 0.041,0.61 0.026,0.245 0.041,0.394 0.041,0.449 0.053,1.574 -0.164,3.095 -0.653,4.561 0,0.054 -0.026,0.176 -0.081,0.367 -0.054,0.189 -0.081,0.338 -0.081,0.447 -0.055,0.109 -0.123,0.204 -0.204,0.285 -0.081,0.082 -0.149,0.176 -0.204,0.285 0,0.109 -0.013,0.299 -0.039,0.57 -0.029,0.272 -0.07,0.489 -0.123,0.653 -0.272,0.814 -0.706,1.547 -1.302,2.199 -0.382,0.434 -0.625,0.678 -0.735,0.733 -0.162,0.162 -0.379,0.297 -0.651,0.407 l -0.408,0.163 c -2.661,1.52 -4.56,2.362 -5.7,2.525 C 4.724,-0.191 3.258,-0.109 0.651,0 Z M 3.014,3.829 3.096,3.91 v 0.081 h 0.57 0.488 c 0.053,0 0.082,0.027 0.082,0.081 H 5.295 C 8.77,3.963 12.299,3.027 15.884,1.263 c 3.584,-1.765 6.487,-4.087 8.715,-6.964 l 0.326,-0.408 c 0.162,-0.326 0.434,-1.195 0.814,-2.606 0.326,-1.195 0.489,-1.928 0.489,-2.199 0.053,-0.598 0,-1.495 -0.163,-2.688 -0.326,-2.281 -0.843,-4.264 -1.548,-5.946 -0.217,-0.544 -0.706,-1.413 -1.466,-2.606 -1.684,-2.716 -3.258,-4.672 -4.725,-5.865 -2.063,-1.683 -4.262,-2.879 -6.597,-3.584 -2.497,-0.761 -5.43,-1.086 -8.796,-0.977 -0.925,0.055 -1.548,0.108 -1.874,0.162 -0.055,0 -0.625,0.135 -1.71,0.408 -0.381,0.108 -0.774,0.216 -1.182,0.326 -0.406,0.108 -0.732,0.189 -0.977,0.244 -0.244,0.053 -0.421,0.081 -0.529,0.081 -0.163,0.054 -0.313,0.135 -0.448,0.245 -0.137,0.108 -0.258,0.189 -0.367,0.244 -1.629,0.76 -3.394,1.738 -5.293,2.932 0,0.054 -0.028,0.054 -0.083,0 v -0.081 c -0.163,0.053 -0.353,0.19 -0.57,0.407 -0.217,0.216 -0.406,0.408 -0.57,0.57 l -0.163,0.244 c -1.955,2.282 -3.503,4.874 -4.643,7.779 -1.14,2.904 -1.602,5.362 -1.384,7.372 0.053,0.489 0.189,1.031 0.408,1.629 0.215,0.596 0.474,1.194 0.772,1.792 0.298,0.597 0.476,0.949 0.53,1.059 l 0.082,0.488 c 0.107,0.163 0.217,0.312 0.326,0.448 0.108,0.135 0.216,0.257 0.325,0.366 0.109,0.109 0.19,0.19 0.245,0.245 1.14,1.519 2.09,2.66 2.85,3.421 0.761,0.76 1.737,1.601 2.934,2.525 1.302,0.977 2.469,1.682 3.501,2.117 2.39,1.087 3.937,1.629 4.643,1.629 L 0.081,4.154 C 0.245,4.262 0.353,4.317 0.408,4.317 V 4.236 c 0.053,0 0.175,0.026 0.366,0.081 0.19,0.054 0.311,0.082 0.366,0.082 0.055,0 0.109,-0.028 0.164,-0.082 C 1.357,4.262 1.412,4.236 1.467,4.236 2.118,4.236 2.456,4.222 2.484,4.195 2.511,4.167 2.579,4.154 2.688,4.154 H 2.852 C 2.905,4.1 2.96,3.991 3.014,3.829"
             style="fill:#ed1c24;fill-opacity:1;fill-rule:nonzero;stroke:none"
             id="path40" /></g><g
           id="g42"
           transform="translate(312.313,203.9283)"><path
             d="M 0,0 C 0.814,0.216 2.103,0.298 3.868,0.244 5.633,0.19 7.005,0.027 7.982,-0.244 c 3.258,-0.815 6.08,-2.309 8.47,-4.48 2.661,-2.281 5.336,-5.268 8.024,-8.96 2.688,-3.693 4.981,-7.44 6.882,-11.24 l 1.304,-2.769 0.163,1.873 c 0.053,1.086 0.107,2.769 0.162,5.05 0.055,2.389 0.164,4.127 0.326,5.213 0.108,0.923 0.15,1.519 0.123,1.792 -0.028,0.271 -0.258,0.814 -0.693,1.629 -0.76,1.629 -1.71,2.443 -2.85,2.443 -0.273,0 -0.517,0.135 -0.734,0.408 -0.217,0.271 -0.109,0.678 0.326,1.221 l 0.652,0.734 h 6.597 c 4.235,0 6.489,-0.164 6.761,-0.489 0.162,-0.11 0.243,-0.354 0.243,-0.733 0,-0.543 -0.651,-1.494 -1.953,-2.851 l -1.059,-1.222 -0.164,-3.502 c -0.11,-2.607 -0.11,-5.838 0,-9.693 0.164,-5.43 0.245,-8.607 0.245,-9.53 0.053,-2.606 0.123,-4.304 0.204,-5.091 0.081,-0.787 0.311,-1.371 0.692,-1.751 0.488,-0.543 0.867,-0.977 1.141,-1.303 0.434,-0.596 0.949,-1.181 1.547,-1.751 0.597,-0.571 1.005,-0.856 1.222,-0.856 0.215,0 0.732,-0.189 1.547,-0.57 0.814,-0.434 1.575,-0.651 2.281,-0.651 0.759,0 1.397,-0.149 1.914,-0.448 0.515,-0.298 0.774,-0.665 0.774,-1.1 0,-1.03 -0.706,-1.737 -2.118,-2.117 -2.227,-0.706 -5.023,-0.556 -8.39,0.448 -3.368,1.005 -6.001,2.457 -7.9,4.357 -1.087,1.033 -2.172,2.417 -3.258,4.154 -1.359,2.118 -2.444,3.774 -3.259,4.969 -2.987,4.398 -5.348,8.172 -7.086,11.321 -0.923,1.846 -1.493,2.878 -1.711,3.096 -0.271,0.326 -0.517,0.76 -0.732,1.303 -0.978,1.955 -1.821,3.393 -2.525,4.317 -0.272,0.326 -0.408,0.38 -0.408,0.162 0,-0.217 0.026,-0.787 0.081,-1.71 0.109,-1.412 0.191,-3.205 0.245,-5.375 0.053,-2.173 0.135,-3.34 0.244,-3.503 0.109,-0.218 0.109,-1.14 0,-2.769 -0.272,-3.584 -0.191,-5.838 0.245,-6.761 0.27,-0.489 0.352,-0.814 0.244,-0.977 -0.055,-0.163 0,-0.244 0.164,-0.244 0.162,0 0.325,-0.192 0.487,-0.57 0.164,-0.382 0.461,-0.734 0.897,-1.059 0.434,-0.273 0.651,-0.558 0.651,-0.856 0,-0.298 0.164,-0.529 0.489,-0.692 0.326,-0.109 0.53,-0.354 0.611,-0.733 0.081,-0.381 0.013,-0.761 -0.204,-1.14 -0.109,-0.326 -0.271,-0.516 -0.489,-0.57 -0.217,-0.054 -0.787,-0.054 -1.71,0 -2.769,0.054 -4.643,0.04 -5.621,-0.041 -0.976,-0.082 -2.471,-0.312 -4.479,-0.693 -1.087,-0.216 -1.738,-0.271 -1.955,-0.163 -0.325,0.11 -0.448,0.503 -0.367,1.182 0.082,0.678 0.285,1.018 0.612,1.018 0.108,0 0.434,0.378 0.978,1.14 0.541,0.76 1.03,1.548 1.464,2.362 0.218,0.489 0.34,0.922 0.368,1.304 0.027,0.378 -0.015,1.247 -0.122,2.605 -0.163,1.901 -0.191,3.34 -0.081,4.317 0.107,0.923 0.107,1.819 0,2.688 -0.165,1.086 -0.259,3.53 -0.285,7.331 -0.029,3.8 0.039,6.191 0.203,7.168 0.216,1.193 0.244,1.981 0.082,2.362 -0.11,0.326 -0.136,1.112 -0.082,2.362 v 1.792 L 6.435,-6.19 c -1.195,1.03 -2.418,1.737 -3.666,2.118 -1.249,0.379 -2.254,0.379 -3.014,0 -0.434,-0.218 -0.693,-0.232 -0.774,-0.041 -0.081,0.19 -0.366,0.204 -0.855,0.041 -0.978,-0.381 -1.657,-0.055 -2.037,0.977 -0.217,0.434 -0.109,0.815 0.327,1.14 C -2.227,-0.869 -1.032,-0.217 0,0"
             style="fill:#ed1c24;fill-opacity:1;fill-rule:nonzero;stroke:none"
             id="path44" /></g><g
           id="g46"
           transform="translate(404.9438,231.0408)"><path
             d="m 0,0 c 1.403,0.135 3.348,0.157 5.836,0.068 2.488,-0.091 4.411,-0.227 5.769,-0.408 1.448,-0.271 3.088,-0.407 4.92,-0.407 1.832,0 3.042,0.136 3.63,0.407 0.544,0.226 1.109,0.34 1.697,0.34 0.497,0 1.165,-0.148 2.002,-0.441 0.836,-0.295 1.368,-0.567 1.594,-0.815 0.227,-0.249 0.419,-0.769 0.578,-1.561 0.158,-0.791 0.214,-1.594 0.169,-2.409 0,-0.86 0.112,-1.764 0.34,-2.714 0.271,-1.086 0.429,-2.036 0.475,-2.851 0.044,-0.95 0.157,-1.764 0.34,-2.443 0.135,-0.769 0.203,-1.335 0.203,-1.696 -0.046,-0.589 0.272,-1.289 0.95,-2.104 0.316,-0.407 0.474,-1.063 0.474,-1.968 0,-0.634 -0.033,-1.041 -0.1,-1.221 -0.069,-0.182 -0.285,-0.408 -0.645,-0.679 -0.453,-0.362 -1.132,-0.543 -2.037,-0.543 -0.905,0 -1.516,0.158 -1.832,0.475 -0.226,0.272 -0.758,1.232 -1.594,2.884 -0.838,1.651 -1.392,2.839 -1.663,3.563 -0.136,0.452 -0.827,1.346 -2.071,2.68 -1.244,1.335 -2.115,2.138 -2.612,2.41 -0.363,0.18 -0.758,0.271 -1.187,0.271 -0.431,0 -1.505,0.226 -3.224,0.679 -2.76,0.679 -5.237,0.984 -7.431,0.916 -2.195,-0.068 -4.559,-0.532 -7.091,-1.391 -1.81,-0.589 -3.202,-1.188 -4.174,-1.799 -0.973,-0.61 -2.206,-1.662 -3.699,-3.155 -2.624,-2.579 -4.444,-4.784 -5.463,-6.616 -1.017,-1.833 -1.98,-4.514 -2.884,-8.042 -0.678,-2.761 -1.109,-4.921 -1.29,-6.482 -0.181,-1.56 -0.27,-3.879 -0.27,-6.956 v -5.632 l 0.747,-1.154 c 0.497,-0.724 0.937,-1.606 1.322,-2.646 0.384,-1.041 0.577,-1.878 0.577,-2.511 0,-0.634 0.09,-1.018 0.271,-1.154 0.226,-0.136 0.804,-1.143 1.731,-3.02 0.927,-1.877 1.323,-2.862 1.188,-2.952 -0.181,-0.091 -0.091,-0.225 0.272,-0.407 0.315,-0.136 1.017,-0.859 2.103,-2.172 2.126,-2.669 4.003,-4.501 5.633,-5.496 0.95,-0.633 2.227,-1.3 3.834,-2.002 1.605,-0.701 2.952,-1.188 4.038,-1.459 1.447,-0.408 3.144,-0.656 5.089,-0.747 1.538,-0.136 3.325,-0.294 5.362,-0.475 3.936,-0.407 8.165,0.114 12.689,1.561 1.312,0.453 2.194,0.792 2.647,1.018 0.451,0.227 1.29,0.769 2.511,1.629 0.859,0.634 1.414,1.007 1.663,1.12 0.248,0.113 0.475,0.113 0.679,0 0.203,-0.113 0.384,-0.147 0.543,-0.103 0.157,0.046 0.417,0.204 0.78,0.475 l 0.882,0.679 0.61,-1.561 c 0.544,-1.221 0.758,-2.182 0.645,-2.884 -0.113,-0.701 -0.599,-1.435 -1.458,-2.205 -1.947,-1.764 -4.208,-3.031 -6.787,-3.8 -4.66,-1.448 -10.586,-2.262 -17.779,-2.443 -4.932,-0.091 -9.073,0.125 -12.419,0.644 -3.35,0.521 -6.402,1.414 -9.162,2.68 -4.887,2.218 -9.117,5.046 -12.69,8.483 -2.49,2.443 -4.503,4.672 -6.041,6.685 -1.538,2.013 -2.873,4.195 -4.004,6.549 -2.035,4.026 -3.167,8.052 -3.392,12.079 l -0.067,2.307 -0.883,0.95 c -0.544,0.544 -0.997,1.155 -1.357,1.833 -0.363,0.723 -0.703,1.266 -1.019,1.629 -0.316,0.361 -0.519,0.904 -0.61,1.628 -0.09,0.724 0,1.266 0.272,1.629 0.315,0.361 0.475,0.611 0.475,0.747 0,0.136 0.497,0.768 1.492,1.899 1.63,1.719 3.234,3.913 4.819,6.583 1.537,2.579 2.351,4.162 2.442,4.751 0.044,0.271 0.724,1.108 2.037,2.51 1.311,1.402 2.736,2.827 4.274,4.276 4.479,4.207 8.324,7.125 11.537,8.754 1.719,0.859 3.936,1.629 6.651,2.307 C -5.429,-0.747 -2.714,-0.272 0,0"
             style="fill:#ed1c24;fill-opacity:1;fill-rule:nonzero;stroke:none"
             id="path48" /></g><g
           id="g50"
           transform="translate(417.6077,198.0231)"><path
             d="m 0,0 c -0.055,-0.055 -0.136,-0.109 -0.244,-0.162 -1.738,-1.413 -3.042,-2.825 -3.91,-4.236 -1.412,-2.281 -2.281,-4.372 -2.605,-6.272 -0.11,-0.598 -0.055,-1.547 0.162,-2.851 0.434,-3.041 0.949,-5.186 1.548,-6.434 0.215,-0.435 0.379,-0.734 0.489,-0.897 0.162,-0.272 0.406,-0.57 0.732,-0.895 2.008,-1.847 4.168,-3.38 6.476,-4.602 2.307,-1.222 4.166,-1.67 5.58,-1.344 1.574,0.325 3.148,1.411 4.723,3.258 0.109,0.108 0.271,0.596 0.488,1.466 0.11,0.434 0.272,0.949 0.489,1.547 l 0.245,0.815 c 0.108,0.271 0.231,0.448 0.367,0.529 0.134,0.082 0.23,0.285 0.285,0.612 l -0.081,0.325 c 0.053,0.326 0.162,1.249 0.324,2.769 l 0.246,0.734 c 0.107,-0.164 0.215,-0.191 0.324,-0.082 -0.162,0.217 -0.285,0.434 -0.366,0.652 -0.081,0.216 -0.122,0.407 -0.122,0.57 0,0.163 0.013,0.367 0.041,0.61 0.026,0.245 0.041,0.394 0.041,0.449 0.053,1.574 -0.164,3.095 -0.653,4.561 0,0.054 -0.026,0.176 -0.081,0.367 -0.054,0.189 -0.081,0.338 -0.081,0.447 -0.055,0.109 -0.123,0.204 -0.204,0.285 -0.081,0.082 -0.149,0.176 -0.204,0.285 0,0.109 -0.013,0.299 -0.039,0.57 -0.029,0.272 -0.07,0.489 -0.123,0.653 -0.272,0.814 -0.706,1.547 -1.303,2.199 -0.381,0.434 -0.624,0.678 -0.734,0.733 -0.162,0.162 -0.379,0.297 -0.651,0.407 l -0.408,0.163 c -2.661,1.52 -4.56,2.362 -5.7,2.525 C 4.724,-0.191 3.258,-0.109 0.651,0 Z M 3.014,3.829 3.096,3.91 v 0.081 h 0.57 0.488 c 0.053,0 0.082,0.027 0.082,0.081 H 5.295 C 8.77,3.963 12.299,3.027 15.884,1.263 c 3.584,-1.765 6.487,-4.087 8.715,-6.964 l 0.326,-0.408 c 0.162,-0.326 0.434,-1.195 0.814,-2.606 0.326,-1.196 0.488,-1.928 0.488,-2.199 0.054,-0.598 0,-1.495 -0.162,-2.688 -0.326,-2.281 -0.843,-4.264 -1.548,-5.946 -0.217,-0.544 -0.706,-1.413 -1.466,-2.606 -1.684,-2.716 -3.258,-4.672 -4.725,-5.865 -2.063,-1.684 -4.262,-2.879 -6.597,-3.584 -2.497,-0.761 -5.43,-1.086 -8.796,-0.977 -0.925,0.055 -1.548,0.108 -1.874,0.162 -0.055,0 -0.625,0.135 -1.71,0.408 -0.381,0.108 -0.774,0.216 -1.182,0.326 -0.406,0.108 -0.732,0.189 -0.978,0.244 -0.243,0.053 -0.42,0.081 -0.528,0.081 -0.163,0.054 -0.313,0.135 -0.448,0.245 -0.137,0.108 -0.258,0.189 -0.367,0.244 -1.629,0.76 -3.394,1.738 -5.293,2.932 0,0.054 -0.029,0.054 -0.083,0 v -0.081 c -0.163,0.053 -0.353,0.19 -0.57,0.407 -0.217,0.216 -0.406,0.408 -0.57,0.57 l -0.163,0.244 c -1.955,2.281 -3.503,4.874 -4.643,7.779 -1.14,2.904 -1.602,5.362 -1.384,7.372 0.053,0.489 0.189,1.031 0.408,1.629 0.215,0.596 0.474,1.194 0.772,1.792 0.298,0.597 0.476,0.949 0.53,1.059 l 0.082,0.488 c 0.107,0.163 0.217,0.312 0.326,0.448 0.108,0.135 0.216,0.257 0.325,0.366 0.109,0.109 0.19,0.19 0.245,0.245 1.14,1.519 2.09,2.66 2.85,3.421 0.761,0.76 1.737,1.601 2.934,2.525 1.302,0.977 2.469,1.682 3.501,2.117 2.39,1.087 3.937,1.629 4.643,1.629 L 0.081,4.154 C 0.245,4.262 0.353,4.317 0.408,4.317 V 4.236 c 0.053,0 0.175,0.026 0.366,0.081 0.19,0.054 0.311,0.082 0.366,0.082 0.055,0 0.109,-0.028 0.164,-0.082 C 1.357,4.262 1.412,4.236 1.467,4.236 2.118,4.236 2.456,4.222 2.484,4.195 2.511,4.167 2.578,4.154 2.688,4.154 H 2.852 C 2.905,4.1 2.96,3.991 3.014,3.829"
             style="fill:#ed1c24;fill-opacity:1;fill-rule:nonzero;stroke:none"
             id="path52" /></g><g
           id="g54"
           transform="translate(461.7555,161.533)"><path
             d="m 0,0 c -0.162,0 -0.462,0.081 -0.897,0.244 l -0.651,0.164 c -0.054,0 -0.081,0.04 -0.081,0.121 v 0.164 c 0,0.027 -0.028,0.027 -0.081,0 C -1.765,0.665 -1.82,0.652 -1.873,0.652 v 0.081 c 0,0.11 -0.014,0.163 -0.041,0.163 -0.028,0 -0.068,-0.013 -0.123,-0.041 C -2.091,0.829 -2.118,0.843 -2.118,0.896 L -2.199,1.059 V 1.14 c -0.272,0.381 -0.544,0.802 -0.815,1.263 -0.272,0.462 -0.529,1.059 -0.773,1.792 -0.245,0.732 -0.435,1.344 -0.571,1.833 -0.136,0.488 -0.34,1.234 -0.61,2.239 -0.274,1.005 -0.462,1.724 -0.57,2.159 l -0.245,0.163 c -0.055,0.162 -0.121,0.407 -0.204,0.733 -0.081,0.326 -0.149,0.57 -0.202,0.733 -0.055,0.163 -0.138,0.366 -0.246,0.61 -0.109,0.245 -0.19,0.449 -0.243,0.612 -0.055,0.162 -0.096,0.42 -0.123,0.774 -0.028,0.352 -0.069,0.611 -0.123,0.773 0,0.054 -0.271,1.303 -0.813,3.747 -0.055,0.163 -0.123,0.474 -0.204,0.937 -0.081,0.46 -0.151,0.8 -0.204,1.018 -0.217,0.597 -0.925,2.171 -2.118,4.724 -0.217,0.597 -0.598,1.412 -1.14,2.443 -0.543,1.032 -0.924,1.764 -1.14,2.2 -1.359,2.823 -2.146,4.452 -2.363,4.887 -0.109,0.163 -0.23,0.312 -0.366,0.448 -0.136,0.134 -0.259,0.285 -0.366,0.448 -0.055,0.108 -0.123,0.285 -0.204,0.529 -0.081,0.245 -0.123,0.394 -0.123,0.448 -0.162,0.217 -0.298,0.407 -0.406,0.57 -0.109,0.164 -0.232,0.298 -0.368,0.408 -0.136,0.108 -0.204,0.189 -0.204,0.244 -0.054,0.054 -0.081,0.135 -0.081,0.244 0,0.109 -0.028,0.19 -0.081,0.245 -0.434,0.759 -0.895,1.466 -1.384,2.117 l -0.083,-0.081 -0.081,-0.081 c -0.054,0.053 -0.109,0.134 -0.162,0.244 -0.055,0.108 -0.081,0.217 -0.081,0.326 l -0.082,0.162 c -1.413,1.956 -3.204,3.666 -5.375,5.132 -0.925,0.652 -1.603,1.059 -2.037,1.222 h -0.245 c -0.11,0 -0.231,0.054 -0.366,0.163 -0.136,0.108 -0.232,0.162 -0.285,0.162 -1.792,0.598 -3.368,0.95 -4.725,1.059 -0.489,0.054 -1.438,0 -2.85,-0.162 -0.436,-0.055 -1.168,-0.204 -2.199,-0.448 -1.033,-0.245 -1.629,-0.366 -1.792,-0.366 -0.054,0 -0.164,-0.055 -0.326,-0.164 l -0.326,-0.081 v 0.081 h -0.082 l -0.243,-0.163 c -0.219,-0.055 -0.34,-0.081 -0.366,-0.081 h -0.204 -0.164 l -1.14,-0.163 -0.163,-0.082 h -0.162 c -0.164,0 -0.355,0.136 -0.57,0.408 -0.219,0.271 -0.274,0.461 -0.164,0.57 0.054,0.053 0.135,0.19 0.245,0.407 0.162,0.216 0.379,0.434 0.651,0.652 l -0.081,0.081 v 0.081 c 0.053,0 0.162,0.082 0.325,0.245 l 0.326,0.163 c 0.163,0.163 0.461,0.434 0.897,0.815 0.434,0.379 0.813,0.664 1.14,0.855 0.325,0.189 0.651,0.339 0.977,0.448 2.118,0.651 4.289,1.031 6.516,1.14 1.954,0.163 4.37,-0.028 7.249,-0.57 1.519,-0.218 2.659,-0.462 3.422,-0.733 1.953,-0.761 4.451,-2.118 7.493,-4.073 0.108,-0.054 0.244,-0.163 0.406,-0.325 0.164,-0.164 0.299,-0.273 0.408,-0.326 0.109,-0.055 0.257,-0.137 0.449,-0.244 0.189,-0.11 0.312,-0.192 0.366,-0.245 1.356,-1.25 2.822,-2.865 4.398,-4.846 1.575,-1.983 2.85,-3.761 3.828,-5.335 0.434,-0.707 0.787,-1.385 1.059,-2.037 0.272,-0.651 0.57,-1.453 0.897,-2.403 0.324,-0.95 0.5,-1.48 0.528,-1.588 0.027,-0.109 0.136,-0.259 0.327,-0.448 0.189,-0.191 0.379,-0.367 0.57,-0.529 0.189,-0.163 0.285,-0.273 0.285,-0.326 C 0.408,28.345 0.815,27.476 1.14,26.391 1.249,26.064 1.276,25.792 1.221,25.576 1.167,25.358 1.193,25.087 1.304,24.762 l 0.325,-0.245 c 0.053,-0.218 0.204,-0.666 0.447,-1.344 0.246,-0.68 0.449,-1.291 0.612,-1.832 l 0.081,-0.897 c -0.217,0.109 -0.353,0.054 -0.406,-0.162 0.215,-0.11 0.393,-0.232 0.529,-0.367 0.134,-0.136 0.23,-0.313 0.285,-0.53 0.053,-0.217 0.107,-0.38 0.162,-0.488 0.055,-0.109 0.109,-0.299 0.164,-0.57 v -0.408 c 0.216,-1.249 0.461,-2.362 0.733,-3.339 0.053,0.163 0.107,0.298 0.162,0.407 0,0.054 0.013,0.135 0.041,0.245 0.027,0.108 0.068,0.163 0.123,0.163 v 0.285 0.203 c 0.162,0.489 0.351,1.072 0.57,1.751 0.216,0.679 0.461,1.397 0.733,2.159 0.271,0.76 0.46,1.275 0.57,1.548 0.053,0.162 0.46,1.03 1.221,2.605 0.055,0 0.068,0.123 0.041,0.368 -0.028,0.244 -0.041,0.392 -0.041,0.448 0,0.325 0.109,0.732 0.326,1.221 0.108,0.163 0.204,0.257 0.285,0.285 0.082,0.027 0.15,0.123 0.204,0.285 v 0.163 c 0.053,0.163 0.134,0.393 0.244,0.692 0.109,0.298 0.217,0.557 0.326,0.774 L 9.368,28.59 9.53,28.509 c -0.109,0.216 0,0.623 0.325,1.221 0.434,0.868 0.815,1.764 1.142,2.688 0,0.054 0.026,0.135 0.081,0.244 0.053,0.109 0.108,0.19 0.162,0.245 v 0.203 c 0,0.082 0.014,0.163 0.042,0.245 0.026,0.081 0.093,0.189 0.204,0.325 0.107,0.136 0.162,0.231 0.162,0.285 0.27,0.435 0.434,0.896 0.489,1.385 0.053,0.054 0.094,0.122 0.121,0.204 0.028,0.081 0.041,0.149 0.041,0.204 -0.054,0.107 -0.109,0.189 -0.162,0.243 h -0.081 v 0.082 h -0.083 l -0.081,0.082 -0.082,0.081 c -0.054,0 -0.081,0.027 -0.081,0.082 -0.054,0 -0.081,0.026 -0.081,0.081 h -0.081 c -0.274,0 -0.68,0.054 -1.223,0.163 h -0.325 c -0.164,0 -0.285,0.013 -0.366,0.041 -0.083,0.026 -0.192,0.04 -0.327,0.04 -0.136,0 -0.258,0.013 -0.366,0.041 -0.109,0.026 -0.19,0.067 -0.245,0.123 L 8.634,36.735 H 8.552 v 0.082 H 8.471 8.39 v 0.081 l -0.081,0.081 -0.245,0.163 c 0,0.053 -0.029,0.081 -0.082,0.081 -0.271,0.489 -0.326,0.787 -0.162,0.896 0.053,0 0.094,0.082 0.121,0.245 0.028,0.163 0.068,0.27 0.123,0.326 v 0.081 l 0.081,0.081 0.081,0.082 c 0.055,0.053 0.123,0.175 0.204,0.367 0.081,0.189 0.149,0.338 0.204,0.447 0.053,0.109 0.136,0.19 0.245,0.245 0.215,0.053 0.678,0.108 1.384,0.163 0.217,0 0.502,-0.014 0.855,-0.041 0.353,-0.028 0.583,-0.014 0.692,0.041 h 0.367 0.368 c 0.107,0.053 0.366,0.081 0.772,0.081 h 0.774 0.164 c 0.053,0 0.107,0.027 0.162,0.082 h 0.733 0.815 0.57 c 0.053,0 0.353,-0.055 0.896,-0.163 0.053,0 0.108,0.026 0.163,0.081 l 0.081,0.082 c 0.108,0.053 0.245,0.081 0.408,0.081 0.053,-0.055 0.094,-0.095 0.122,-0.122 0.027,-0.028 0.067,-0.041 0.121,-0.041 h 0.081 0.165 0.324 c 0.055,0 0.083,-0.028 0.083,-0.081 v -0.163 c 0.053,0.163 0.189,0.189 0.406,0.082 0.272,-0.055 0.542,-0.055 0.815,0 0.054,0 0.095,-0.015 0.123,-0.041 0.027,-0.028 0.066,-0.014 0.121,0.041 h 0.081 l 0.083,-0.082 h 0.163 c 0.107,0 0.243,0.027 0.407,0.082 h 0.081 c 0.053,0 0.095,0.012 0.123,0.04 0.027,0.027 0.04,0.067 0.04,0.122 l 0.081,0.082 c 0.109,0.053 0.353,0 0.734,-0.163 0.27,-0.11 0.406,-0.191 0.406,-0.245 0.055,-0.054 0.109,-0.081 0.164,-0.081 0.053,-0.055 0.081,-0.218 0.081,-0.489 0,-0.054 0.027,-0.109 0.082,-0.163 l 0.081,-0.162 v -0.815 c 0.053,-0.543 0.053,-0.843 0,-0.896 0,-0.11 -0.055,-0.217 -0.163,-0.326 -0.109,-0.109 -0.162,-0.191 -0.162,-0.244 h -0.164 c 0.053,-0.055 0.053,-0.082 0,-0.082 h -0.081 v -0.081 c -0.055,0.053 -0.081,0.053 -0.081,0 -0.327,-0.163 -1.114,-0.299 -2.364,-0.407 v -0.082 c -0.054,0 -0.109,0.013 -0.162,0.041 -0.055,0.026 -0.094,0.041 -0.123,0.041 -0.026,0 -0.068,-0.015 -0.121,-0.041 -0.054,-0.028 -0.096,-0.041 -0.122,-0.041 -0.028,0 -0.068,0.013 -0.123,0.041 -0.055,0.026 -0.094,0.041 -0.121,0.041 h -0.122 c -0.11,-0.11 -0.219,-0.191 -0.327,-0.245 l -0.081,-0.081 v -0.081 c -0.055,0 -0.123,-0.055 -0.204,-0.164 -0.081,-0.109 -0.149,-0.19 -0.204,-0.244 -0.109,-0.544 -0.298,-1.195 -0.57,-1.955 v -0.082 c 0.053,-0.109 0.081,-0.243 0.081,-0.406 -0.054,-0.055 -0.109,-0.082 -0.162,-0.082 v -0.082 l 0.081,-0.081 c -0.054,0 -0.081,-0.055 -0.081,-0.163 0,-0.109 -0.028,-0.191 -0.081,-0.244 l -0.081,-0.163 h -0.082 c 0.108,-0.055 0.108,-0.163 0,-0.326 -0.109,-0.272 -0.218,-0.543 -0.326,-0.814 V 30.87 l -0.081,-0.081 v -0.122 -0.123 h -0.081 c -0.11,-0.163 -0.191,-0.299 -0.246,-0.406 V 30.015 29.934 29.811 29.73 C 16.643,29.567 16.48,29.35 16.208,29.079 H 16.127 V 28.915 C 16.073,28.861 16.033,28.752 16.005,28.59 15.978,28.427 15.95,28.305 15.923,28.223 15.895,28.141 15.829,28.02 15.72,27.856 15.61,27.693 15.529,27.557 15.476,27.45 15.367,27.177 15.232,26.865 15.068,26.513 14.906,26.159 14.77,25.874 14.661,25.657 14.606,25.603 14.525,25.48 14.417,25.29 14.308,25.1 14.227,24.951 14.173,24.843 14.119,24.57 14.051,24.299 13.97,24.028 c -0.082,-0.272 -0.178,-0.57 -0.285,-0.896 -0.11,-0.326 -0.193,-0.57 -0.246,-0.732 0,-0.164 -0.081,-0.544 -0.243,-1.141 -0.164,-0.598 -0.3,-1.059 -0.408,-1.385 -0.109,-0.326 -0.285,-0.788 -0.53,-1.384 -0.244,-0.599 -0.421,-1.006 -0.529,-1.222 v -0.326 c 0,-0.11 -0.028,-0.191 -0.081,-0.245 0,-0.109 -0.055,-0.217 -0.162,-0.325 l -0.083,-0.163 c -0.055,-0.163 -0.095,-0.299 -0.121,-0.407 -0.028,-0.11 -0.055,-0.204 -0.081,-0.285 -0.029,-0.082 -0.042,-0.15 -0.042,-0.204 0,-0.055 -0.028,-0.096 -0.081,-0.122 -0.055,-0.028 -0.081,-0.069 -0.081,-0.123 -0.219,-0.488 -0.381,-0.924 -0.489,-1.303 h 0.081 L 10.344,13.358 C 10.072,12.76 9.583,11.322 8.879,9.041 8.824,8.932 8.728,8.702 8.594,8.349 8.456,7.995 8.39,7.791 8.39,7.738 L 8.471,7.575 C 8.417,7.465 8.362,7.384 8.309,7.33 8.254,7.276 8.199,7.221 8.145,7.168 7.982,6.679 7.82,6.244 7.656,5.865 7.82,5.43 7.792,4.725 7.575,3.747 7.412,3.15 7.276,2.797 7.167,2.688 7.005,2.525 6.895,2.417 6.842,2.362 6.788,2.308 6.353,2.146 5.538,1.873 H 5.457 V 1.71 L 5.376,1.548 H 5.295 V 1.629 C 5.24,1.629 5.213,1.588 5.213,1.507 5.213,1.425 5.198,1.372 5.172,1.344 5.144,1.317 5.077,1.303 4.968,1.303 H 4.887 C 4.832,1.249 4.778,1.182 4.724,1.1 4.67,1.018 4.562,0.978 4.398,0.978 c 0,0.054 -0.013,0.054 -0.04,0 C 4.33,0.924 4.289,0.896 4.236,0.896 4.181,0.896 4.019,0.924 3.747,0.978 2.226,0.435 0.978,0.109 0,0"
             style="fill:#ed1c24;fill-opacity:1;fill-rule:nonzero;stroke:none"
             id="path56" /></g><g
           id="g58"
           transform="translate(514.0464,202.7476)"><path
             d="m 0,0 c 0.544,0.271 0.868,0.407 0.978,0.407 0.109,0 0.379,-0.354 0.815,-1.059 0.379,-0.706 0.759,-1.221 1.14,-1.547 0.38,-0.273 0.461,-0.598 0.244,-0.978 -0.163,-0.325 -0.149,-0.584 0.041,-0.774 0.189,-0.19 0.285,-0.447 0.285,-0.774 0,-0.271 0.217,-0.679 0.651,-1.221 0.542,-0.652 1.112,-2.172 1.711,-4.561 0.326,-1.413 -0.082,-2.199 -1.222,-2.362 -0.598,-0.055 -1.006,-0.028 -1.221,0.081 -0.217,0.108 -0.544,0.489 -0.978,1.14 -0.489,0.76 -1.494,1.873 -3.014,3.34 -1.303,1.303 -2.308,2.13 -3.013,2.484 -0.706,0.353 -1.902,0.664 -3.584,0.937 -2.443,0.379 -4.155,0.326 -5.131,-0.163 -0.164,-0.11 -0.218,-0.191 -0.164,-0.245 0.053,-0.272 -0.081,-0.435 -0.407,-0.488 l -0.652,-0.163 0.082,-5.376 c 0,-3.639 0.082,-5.674 0.245,-6.109 0.108,-0.38 0.325,-0.598 0.651,-0.652 0.327,-0.054 1.629,-0.081 3.909,-0.081 1.739,0 3.083,0.204 4.032,0.611 0.95,0.407 1.427,0.99 1.427,1.751 0,0.326 0.147,0.693 0.447,1.1 0.299,0.408 0.584,0.611 0.855,0.611 0.163,0 0.597,-0.136 1.303,-0.407 0.434,-0.164 0.706,-0.326 0.815,-0.489 0.108,-0.163 0.163,-0.489 0.163,-0.978 0,-0.706 0.122,-1.643 0.366,-2.81 0.245,-1.168 0.394,-2.566 0.449,-4.195 l 0.081,-2.362 -0.732,-0.244 c -0.489,-0.217 -1.006,-0.258 -1.548,-0.122 -0.544,0.135 -0.897,0.394 -1.059,0.774 -0.219,0.434 -0.843,1.018 -1.874,1.751 -1.033,0.733 -1.901,1.181 -2.607,1.344 -0.868,0.271 -2.227,0.407 -4.071,0.407 h -2.77 l 0.163,-0.978 c 0.162,-0.923 0.215,-3.909 0.162,-8.959 0,-0.38 0.136,-0.814 0.408,-1.303 0.27,-0.38 0.461,-0.762 0.57,-1.14 0.108,-0.273 0.461,-0.477 1.059,-0.612 0.596,-0.136 2.199,-0.312 4.806,-0.528 3.909,-0.327 7.086,-0.245 9.53,0.243 1.085,0.217 1.844,0.258 2.28,0.123 0.434,-0.136 0.704,-0.477 0.814,-1.018 0.164,-0.87 -0.217,-1.521 -1.14,-1.955 -0.923,-0.434 -2.717,-0.786 -5.376,-1.059 -2.879,-0.326 -7.684,-0.081 -14.417,0.733 -1.901,0.217 -4.832,0.272 -8.796,0.163 -3.802,-0.053 -5.812,0.054 -6.027,0.325 -0.382,0.435 -0.3,0.978 0.243,1.629 0.542,0.652 1.25,1.059 2.118,1.222 0.542,0.054 0.91,0.15 1.1,0.285 0.189,0.136 0.393,0.449 0.61,0.938 0.38,0.705 0.761,1.221 1.14,1.547 0.272,0.271 0.421,0.502 0.449,0.692 0.027,0.19 -0.015,0.637 -0.122,1.344 -0.217,0.978 -0.272,2.253 -0.163,3.828 0.108,1.467 0.082,2.742 -0.081,3.829 -0.164,0.867 -0.245,2.389 -0.245,4.561 -0.055,1.411 -0.04,2.321 0.041,2.729 0.082,0.407 0.312,0.908 0.693,1.506 0.542,0.868 0.814,1.357 0.814,1.467 0,0.107 -0.299,0.57 -0.897,1.384 -0.434,0.651 -0.679,1.086 -0.732,1.303 -0.055,0.217 0,0.624 0.162,1.222 0.164,0.814 0.109,1.507 -0.162,2.077 -0.272,0.57 -0.584,0.937 -0.937,1.099 -0.354,0.164 -1.1,0.299 -2.24,0.408 -1.032,0.053 -1.738,0.19 -2.118,0.407 -0.379,0.216 -0.517,0.57 -0.407,1.059 0.164,0.379 0.46,0.787 0.896,1.222 l 0.732,0.57 h 13.277 c 8.798,0 13.412,0.109 13.848,0.326 0.107,0.054 0.338,0.189 0.692,0.407 C -0.257,-0.109 -0.055,0 0,0"
             style="fill:#ed1c24;fill-opacity:1;fill-rule:nonzero;stroke:none"
             id="path60" /></g><g
           id="g62"
           transform="translate(124.7538,247.695)"><path
             d="m 0,0 c 0.887,0.322 1.393,0.484 1.514,0.484 0.081,0.04 0.909,-0.04 2.484,-0.242 1.655,-0.203 4.603,-0.363 8.843,-0.485 4.24,-0.121 7.046,-0.121 8.419,0 1.534,0.162 3.574,0.202 6.118,0.122 2.059,-0.041 3.482,-0.122 4.27,-0.243 0.787,-0.121 1.787,-0.444 2.998,-0.969 0.808,-0.323 1.454,-0.545 1.938,-0.666 0.485,-0.081 1.262,-0.404 2.333,-0.969 1.069,-0.566 1.847,-1.051 2.332,-1.454 0.565,-0.484 0.887,-0.929 0.968,-1.332 0.081,-0.364 0.243,-0.546 0.485,-0.546 0.202,0 0.384,-0.09 0.546,-0.272 0.16,-0.182 0.221,-0.354 0.181,-0.515 -0.041,-0.162 0,-0.364 0.121,-0.606 0.161,-0.283 0.242,-0.727 0.242,-1.333 0.04,-0.565 0.122,-1.029 0.243,-1.393 0.161,-0.363 0.232,-0.676 0.212,-0.938 -0.021,-0.263 0.151,-0.536 0.515,-0.818 0.322,-0.242 0.504,-0.445 0.545,-0.606 0.039,-0.161 -0.071,-0.404 -0.334,-0.726 -0.263,-0.324 -0.393,-0.606 -0.393,-0.848 0,-0.243 -0.233,-0.809 -0.697,-1.697 -0.464,-0.888 -0.898,-1.615 -1.302,-2.18 -1.051,-1.374 -2.483,-2.504 -4.3,-3.392 l -1.454,-0.788 0.363,-0.484 c 0.282,-0.363 0.899,-1.01 1.847,-1.938 0.949,-0.929 1.767,-1.657 2.454,-2.181 0.969,-0.768 1.978,-1.656 3.028,-2.665 1.05,-1.01 1.736,-1.737 2.06,-2.18 0.444,-0.647 0.787,-0.97 1.029,-0.97 0.162,0 0.425,-0.121 0.788,-0.363 0.363,-0.242 0.545,-0.404 0.545,-0.484 0,-0.122 0.606,-0.809 1.817,-2.06 1.211,-1.252 2.099,-2.12 2.666,-2.605 0.685,-0.605 1.15,-0.869 1.393,-0.787 0.201,0.04 0.413,-0.071 0.636,-0.333 0.221,-0.263 0.333,-0.555 0.333,-0.879 0,-0.242 0.08,-0.433 0.242,-0.575 0.161,-0.141 0.565,-0.373 1.211,-0.696 0.686,-0.364 1.736,-0.798 3.15,-1.303 1.413,-0.504 2.503,-0.818 3.271,-0.938 0.484,-0.081 2.281,-0.04 5.391,0.12 3.189,0.122 4.804,0.122 4.845,0 0.04,-0.16 0.263,-0.242 0.667,-0.242 h 0.544 l -0.12,-0.969 c -0.122,-0.686 -0.304,-1.171 -0.546,-1.453 -0.202,-0.202 -0.757,-0.464 -1.665,-0.788 -0.909,-0.323 -1.727,-0.545 -2.454,-0.667 -1.736,-0.242 -3.987,-0.342 -6.753,-0.302 -2.766,0.041 -4.936,0.222 -6.511,0.545 -1.091,0.202 -2.222,0.545 -3.392,1.03 -1.293,0.525 -2.181,0.869 -2.666,1.029 -0.484,0.162 -1.07,0.424 -1.756,0.788 -0.525,0.363 -1.615,0.99 -3.271,1.877 -2.544,1.294 -4.987,2.908 -7.329,4.846 -1.05,0.848 -1.636,1.272 -1.756,1.272 -0.122,0 -0.405,0.222 -0.849,0.666 -0.323,0.404 -1.293,1.232 -2.907,2.484 -2.867,2.301 -4.927,4.179 -6.178,5.633 -0.727,0.848 -1.454,1.493 -2.181,1.938 -0.646,0.403 -1.555,1.03 -2.726,1.878 -1.171,0.848 -1.979,1.474 -2.422,1.878 -0.445,0.403 -0.788,0.645 -1.03,0.726 -0.203,0.081 -0.303,0.303 -0.303,0.667 0,0.363 0.121,0.706 0.363,1.03 0.202,0.242 0.445,0.403 0.728,0.484 0.282,0.081 1.17,0.222 2.664,0.424 2.625,0.282 4.805,0.706 6.542,1.272 0.807,0.242 1.494,0.606 2.059,1.09 0.565,0.485 0.869,0.948 0.909,1.393 0,0.364 0.08,0.849 0.242,1.454 0.161,0.606 0.283,1.242 0.364,1.908 0.081,0.667 0.081,1.019 0,1.06 -0.121,0.081 -0.242,0.524 -0.364,1.333 -0.162,1.735 -1.292,3.068 -3.392,3.997 -0.727,0.364 -1.565,0.595 -2.514,0.697 -0.948,0.101 -2.573,0.152 -4.875,0.152 h -3.937 l -0.848,-0.849 c -0.525,-0.605 -0.788,-1.171 -0.788,-1.695 -0.081,-5.412 -0.06,-9.571 0.061,-12.478 0.121,-2.181 0.1,-3.776 -0.061,-4.785 -0.162,-1.051 -0.162,-1.737 0,-2.06 0.161,-0.324 0.242,-0.687 0.242,-1.09 -0.161,-2.626 -0.161,-3.937 0,-3.937 0.122,0 0.161,-0.445 0.122,-1.333 0,-1.131 0.05,-1.817 0.151,-2.059 0.1,-0.243 0.474,-0.707 1.121,-1.393 0.605,-0.566 1.412,-0.748 2.422,-0.545 0.525,0.08 1.02,0 1.485,-0.242 0.463,-0.243 0.716,-0.556 0.757,-0.939 0.039,-0.385 -0.061,-0.899 -0.303,-1.545 -0.242,-0.645 -0.485,-1.03 -0.727,-1.151 -0.202,-0.08 -0.939,-0.08 -2.211,0 -1.272,0.081 -2.453,0.203 -3.543,0.363 -1.01,0.122 -3.877,0.162 -8.602,0.122 -3.432,0 -5.511,0.01 -6.238,0.03 -0.727,0.021 -1.151,0.112 -1.272,0.272 -0.364,0.485 -0.364,1.171 0,2.06 0.161,0.363 0.394,0.606 0.696,0.727 0.303,0.121 0.838,0.181 1.605,0.181 0.364,0 0.616,0.04 0.758,0.122 0.141,0.08 0.312,0.282 0.515,0.605 0.281,0.525 0.474,0.788 0.575,0.788 0.1,0 0.151,0.08 0.151,0.242 0,0.161 0.101,0.343 0.303,0.545 0.202,0.121 0.262,0.313 0.182,0.576 -0.081,0.262 -0.132,1.362 -0.151,3.301 -0.021,1.938 0.07,3.008 0.272,3.21 0.202,0.201 0.787,0.444 1.757,0.727 l 1.453,0.424 -0.606,0.666 c -0.444,0.485 -0.949,0.888 -1.514,1.212 l -0.847,0.484 v 6.3 c 0.039,4.118 0,6.481 -0.122,7.086 -0.121,0.444 -0.182,1.393 -0.182,2.847 0,1.454 0.041,2.302 0.122,2.544 0.039,0.161 -0.223,0.444 -0.788,0.848 -0.566,0.403 -1.009,0.606 -1.332,0.606 -0.405,0 -0.97,0.121 -1.696,0.363 -0.727,0.243 -1.253,0.464 -1.575,0.667 -0.283,0.242 -0.455,0.424 -0.515,0.544 -0.06,0.122 -0.071,0.343 -0.03,0.667 0.08,0.364 0.221,0.625 0.424,0.788 C -1.495,-0.627 -0.93,-0.364 0,0"
             style="fill:#ed1c24;fill-opacity:1;fill-rule:nonzero;stroke:none"
             id="path64" /></g><g
           id="g66"
           transform="translate(194.5999,245.494)"><path
             d="m 0,0 c 0.403,0.201 0.645,0.303 0.727,0.303 0.08,0 0.282,-0.264 0.606,-0.788 0.281,-0.525 0.565,-0.908 0.848,-1.15 0.282,-0.203 0.342,-0.445 0.181,-0.727 -0.121,-0.243 -0.111,-0.435 0.031,-0.576 0.141,-0.142 0.212,-0.333 0.212,-0.575 0,-0.202 0.16,-0.506 0.484,-0.909 0.403,-0.484 0.827,-1.615 1.272,-3.392 0.242,-1.05 -0.06,-1.635 -0.909,-1.756 -0.445,-0.041 -0.747,-0.021 -0.908,0.06 -0.162,0.081 -0.404,0.364 -0.727,0.848 -0.363,0.565 -1.111,1.393 -2.241,2.484 -0.969,0.969 -1.717,1.584 -2.241,1.847 -0.525,0.263 -1.414,0.494 -2.665,0.697 -1.817,0.281 -3.089,0.242 -3.816,-0.121 -0.122,-0.082 -0.162,-0.142 -0.122,-0.182 0.04,-0.203 -0.06,-0.324 -0.302,-0.364 l -0.485,-0.121 0.061,-3.997 c 0,-2.706 0.06,-4.22 0.182,-4.543 0.08,-0.283 0.242,-0.445 0.484,-0.485 0.242,-0.041 1.211,-0.06 2.908,-0.06 1.291,0 2.29,0.151 2.998,0.454 0.706,0.303 1.06,0.736 1.06,1.302 0,0.242 0.111,0.515 0.333,0.818 0.221,0.303 0.433,0.454 0.636,0.454 0.121,0 0.443,-0.101 0.969,-0.303 0.323,-0.121 0.524,-0.242 0.606,-0.363 0.08,-0.121 0.121,-0.364 0.121,-0.727 0,-0.525 0.091,-1.222 0.272,-2.09 0.182,-0.868 0.293,-1.908 0.334,-3.119 l 0.06,-1.757 -0.545,-0.182 c -0.364,-0.161 -0.747,-0.191 -1.151,-0.09 -0.404,0.1 -0.666,0.292 -0.788,0.575 -0.161,0.323 -0.626,0.758 -1.393,1.302 -0.767,0.546 -1.413,0.879 -1.937,1 -0.647,0.202 -1.657,0.303 -3.03,0.303 h -2.059 l 0.122,-0.727 c 0.12,-0.687 0.16,-2.907 0.12,-6.663 0,-0.283 0.101,-0.605 0.304,-0.969 0.201,-0.283 0.342,-0.566 0.423,-0.848 0.081,-0.203 0.343,-0.354 0.788,-0.455 0.444,-0.101 1.635,-0.232 3.574,-0.393 2.907,-0.242 5.269,-0.181 7.086,0.181 0.808,0.162 1.373,0.192 1.696,0.092 0.323,-0.101 0.525,-0.355 0.606,-0.758 0.121,-0.646 -0.162,-1.13 -0.848,-1.453 -0.687,-0.323 -2.02,-0.585 -3.997,-0.788 -2.142,-0.242 -5.715,-0.06 -10.722,0.546 -1.414,0.161 -3.594,0.202 -6.541,0.12 -2.827,-0.039 -4.321,0.041 -4.482,0.243 -0.284,0.323 -0.223,0.727 0.181,1.211 0.403,0.485 0.928,0.787 1.575,0.909 0.403,0.04 0.676,0.111 0.817,0.212 0.142,0.1 0.293,0.333 0.455,0.697 0.282,0.524 0.565,0.908 0.848,1.15 0.201,0.202 0.312,0.373 0.333,0.515 0.02,0.141 -0.01,0.474 -0.091,1 -0.161,0.727 -0.203,1.675 -0.121,2.846 0.08,1.091 0.061,2.039 -0.061,2.848 -0.12,0.645 -0.181,1.776 -0.181,3.391 -0.041,1.05 -0.031,1.726 0.03,2.029 0.061,0.303 0.232,0.676 0.515,1.121 0.403,0.645 0.606,1.009 0.606,1.09 0,0.08 -0.223,0.424 -0.666,1.03 -0.325,0.484 -0.506,0.807 -0.546,0.969 -0.04,0.161 0,0.464 0.122,0.908 0.12,0.606 0.08,1.121 -0.122,1.545 -0.202,0.424 -0.434,0.697 -0.696,0.818 -0.263,0.121 -0.818,0.221 -1.666,0.303 -0.768,0.039 -1.293,0.141 -1.575,0.302 -0.283,0.161 -0.384,0.424 -0.303,0.788 0.121,0.282 0.343,0.585 0.666,0.909 l 0.546,0.424 h 9.873 c 6.541,0 9.973,0.08 10.297,0.242 0.08,0.04 0.252,0.141 0.515,0.303 C -0.192,-0.081 -0.041,0 0,0"
             style="fill:#ed1c24;fill-opacity:1;fill-rule:nonzero;stroke:none"
             id="path68" /></g><g
           id="g70"
           transform="translate(204.1497,219.0848)"><path
             d="m 0,0 c 0.08,0.161 0.221,0.303 0.424,0.425 0.201,0.12 0.433,0.221 0.696,0.302 0.263,0.081 0.414,0.141 0.455,0.182 0.039,0 0.182,0.02 0.424,0.06 0.039,0 0.08,0.021 0.121,0.061 h 0.061 c 0.12,0.08 0.201,0.121 0.242,0.121 v 0.06 0.061 h 0.121 l 0.061,0.061 h 0.06 l 0.06,0.06 c 0.04,0 0.081,0.01 0.122,0.031 0.04,0.02 0.07,0.03 0.091,0.03 h 0.09 c 0.04,0.04 0.101,0.141 0.182,0.303 0.04,0 0.07,0.03 0.091,0.091 0.02,0.06 0.031,0.1 0.031,0.121 0,0.02 0.019,0.05 0.06,0.091 0,0.161 -0.041,0.887 -0.121,2.18 L 3.15,4.361 C 3.109,4.401 3.099,4.462 3.119,4.543 3.139,4.624 3.15,4.704 3.15,4.785 3.15,4.825 3.129,4.886 3.089,4.967 3.048,5.048 3.028,5.108 3.028,5.149 c 0,0.04 0.02,0.111 0.061,0.212 0.04,0.1 0.081,0.171 0.121,0.212 0.04,0.16 0.07,0.353 0.091,0.575 0.02,0.222 0.05,0.373 0.091,0.455 0,0.08 0.03,0.171 0.091,0.272 0.061,0.101 0.091,0.191 0.091,0.272 0,0.161 -0.041,0.414 -0.122,0.758 C 3.371,8.247 3.332,8.44 3.332,8.48 3.332,8.561 3.301,8.762 3.24,9.086 3.18,9.409 3.15,9.651 3.15,9.813 c 0,0.201 0.009,0.463 0.03,0.787 0.02,0.323 0.03,0.565 0.03,0.727 0,0.04 -0.021,0.081 -0.06,0.121 -0.041,0.04 -0.061,0.091 -0.061,0.152 0,0.06 0.02,0.13 0.061,0.212 l 0.121,0.06 c 0,0.122 -0.041,0.242 -0.121,0.364 v 0.12 c -0.041,0 -0.041,0.021 0,0.061 l 0.121,0.061 c 0.04,0.282 0.061,0.524 0.061,0.727 H 3.271 3.15 c -0.041,0.08 0.02,0.161 0.182,0.242 0.08,0.323 0.08,1.11 0,2.362 -0.042,0.081 -0.042,0.212 0,0.394 0.039,0.182 0.039,0.292 0,0.333 L 3.21,16.597 c 0,0.039 0.02,0.08 0.061,0.121 0.04,0.04 0.061,0.08 0.061,0.121 0.039,0.364 0.16,0.827 0.363,1.393 0.04,0.04 0.07,0.152 0.091,0.334 0.019,0.181 0.05,0.302 0.09,0.362 0.04,0.061 0.081,0.172 0.122,0.334 0.039,0.161 0.09,0.292 0.151,0.393 0.061,0.101 0.131,0.172 0.212,0.212 0.04,0 0.05,0.02 0.03,0.061 -0.021,0.04 -0.03,0.07 -0.03,0.091 0,0.02 0.04,0.03 0.121,0.03 h 0.061 v 0.061 0.061 h 0.121 c 0.08,0.039 0.141,0.06 0.181,0.06 0.243,0.161 0.384,0.242 0.424,0.242 0.04,0 0.061,0.02 0.061,0.061 h 0.061 c 0.161,0.04 0.484,0.07 0.969,0.091 0.484,0.019 0.807,0.009 0.969,-0.03 0,-0.041 0.141,-0.082 0.424,-0.122 0.282,-0.041 0.463,-0.081 0.545,-0.121 H 8.48 8.601 c 0.039,0 0.091,-0.021 0.152,-0.061 0.06,-0.04 0.11,-0.081 0.151,-0.12 0.121,-0.041 0.363,-0.102 0.727,-0.182 0.363,-0.081 0.656,-0.152 0.878,-0.212 0.221,-0.061 0.353,-0.152 0.394,-0.273 0.08,-0.202 0.14,-0.666 0.181,-1.393 0.04,-0.242 0.02,-0.545 -0.06,-0.908 -0.082,-0.364 -0.121,-0.627 -0.121,-0.788 -0.041,-0.121 -0.041,-0.273 0,-0.455 0.039,-0.181 0.06,-0.313 0.06,-0.393 v -1.09 c 0,-0.566 0.02,-0.869 0.061,-0.909 v -0.121 -0.121 c 0,-0.041 0.019,-0.082 0.06,-0.121 l 0.061,-0.061 c 0.04,-0.363 0.07,-0.938 0.091,-1.726 0.019,-0.787 0.03,-1.202 0.03,-1.242 0,-0.202 -0.02,-0.384 -0.061,-0.545 C 11.165,9.469 11.104,9.298 11.024,9.116 10.942,8.934 10.903,8.783 10.903,8.662 l 0.06,-0.06 C 11.003,8.561 11.064,8.51 11.145,8.45 11.225,8.389 11.286,8.338 11.327,8.298 11.448,8.136 11.468,7.914 11.387,7.632 11.387,7.551 11.336,7.49 11.236,7.451 11.135,7.41 11.084,7.349 11.084,7.269 L 11.266,7.208 C 11.225,7.126 11.205,6.996 11.205,6.815 V 6.36 C 11.165,6.199 11.104,6.138 11.024,6.178 H 10.903 10.782 C 11.145,6.057 11.246,5.876 11.084,5.634 L 11.024,5.512 C 10.862,5.028 10.842,4.543 10.963,4.059 c 0,-0.041 -0.01,-0.102 -0.03,-0.182 -0.021,-0.081 -0.03,-0.132 -0.03,-0.152 0,-0.021 0.03,-0.051 0.091,-0.09 0.06,-0.041 0.08,-0.082 0.06,-0.122 C 11.034,3.473 11.003,3.412 10.963,3.332 10.923,3.25 10.903,3.19 10.903,3.15 10.821,2.908 10.862,2.665 11.024,2.423 c 0,-0.041 0.01,-0.091 0.03,-0.151 0.02,-0.061 0.05,-0.112 0.091,-0.152 0.04,-0.04 0.11,-0.09 0.212,-0.151 0.1,-0.061 0.171,-0.112 0.212,-0.151 0.039,-0.082 0.06,-0.162 0.06,-0.243 1.817,-0.041 3.15,-0.041 3.998,0 l 0.242,0.121 h 0.182 c 0.202,0.161 0.323,0.262 0.363,0.303 h 0.061 l 0.121,0.061 v 0.06 l 0.122,0.061 0.06,0.061 -0.06,0.06 c 0.039,0 0.08,0.009 0.12,0.03 0.04,0.02 0.081,0.03 0.122,0.03 1.534,1.656 2.564,2.928 3.089,3.816 L 19.988,6.3 c 0.04,0.08 0.091,0.171 0.152,0.272 0.06,0.1 0.09,0.192 0.09,0.273 0.04,0.039 0.061,0.11 0.061,0.212 0,0.1 0.01,0.182 0.031,0.242 0.019,0.06 0.069,0.141 0.151,0.242 0.08,0.101 0.121,0.171 0.121,0.212 0.081,0.161 0.242,0.565 0.485,1.212 0,0.04 0.039,0.13 0.121,0.272 0.08,0.142 0.121,0.252 0.121,0.333 0.08,0.243 0.1,0.788 0.06,1.636 -0.04,0.202 -0.081,0.484 -0.12,0.848 -0.042,0.363 -0.061,0.625 -0.061,0.787 -0.041,0.121 -0.061,0.373 -0.061,0.758 0,0.383 -0.021,0.675 -0.06,0.878 0,0.08 -0.021,0.141 -0.061,0.181 -0.041,0.04 -0.071,0.091 -0.091,0.152 -0.021,0.06 -0.01,0.131 0.03,0.212 l 0.061,0.121 c -0.041,0.08 -0.071,0.151 -0.091,0.212 -0.021,0.061 -0.051,0.111 -0.091,0.151 l -0.06,0.061 c 0,0.04 0.019,0.08 0.06,0.121 0.04,0.04 0.061,0.081 0.061,0.121 -0.041,0.282 -0.102,0.525 -0.182,0.727 h -0.061 -0.06 l 0.06,0.243 c -0.04,0.605 -0.343,1.393 -0.908,2.361 -0.041,0.04 -0.091,0.122 -0.152,0.243 -0.06,0.121 -0.111,0.221 -0.151,0.303 -0.041,0.08 -0.081,0.141 -0.121,0.181 h -0.121 c 0,0.041 -0.011,0.092 -0.03,0.152 -0.021,0.06 -0.031,0.111 -0.031,0.152 -0.566,0.766 -0.929,1.25 -1.09,1.453 l -0.788,0.606 c -0.12,0.121 -0.353,0.272 -0.696,0.454 -0.344,0.182 -0.535,0.293 -0.575,0.333 l -0.122,0.061 h -0.121 v 0.061 c -1.292,0.08 -2.645,0 -4.058,-0.243 -0.202,-0.041 -0.495,-0.091 -0.878,-0.151 -0.385,-0.061 -0.717,-0.121 -1,-0.182 C 9.53,22.502 9.328,22.472 9.207,22.472 L 8.965,22.351 C 8.802,22.311 8.64,22.29 8.48,22.29 H 8.177 C 6.279,22.088 4.582,22.027 3.089,22.108 c -1.172,0.081 -2.1,0.243 -2.786,0.485 -0.687,0.242 -1.454,0.606 -2.302,1.09 -0.848,0.485 -1.333,0.868 -1.454,1.151 l -0.181,0.242 c -0.121,0.161 -0.203,0.263 -0.243,0.304 h 0.061 0.061 c 0,0.039 -0.061,0.141 -0.182,0.302 -0.122,0.161 -0.182,0.263 -0.182,0.303 0,0.04 0.02,0.101 0.06,0.182 0.04,0.08 0.061,0.141 0.061,0.182 0,0.121 -0.021,0.242 -0.061,0.363 -0.04,0.121 -0.06,0.202 -0.06,0.243 v 0.15 c 0,0.061 0.04,0.111 0.121,0.152 0.04,0.04 0.061,0.1 0.061,0.182 v 0.121 c 0.08,0.121 0.342,0.282 0.787,0.484 0.444,0.202 0.706,0.263 0.788,0.182 0.039,-0.04 0.181,-0.081 0.424,-0.121 0.282,-0.041 0.484,-0.142 0.605,-0.303 0.04,0 0.081,0.02 0.122,0.061 l 0.12,0.061 c 0.04,-0.042 0.101,-0.102 0.182,-0.182 0.081,-0.081 0.141,-0.121 0.182,-0.121 0.161,-0.082 0.383,-0.142 0.667,-0.182 0.281,-0.041 0.493,-0.091 0.636,-0.152 0.141,-0.06 0.251,-0.131 0.332,-0.212 0.606,-1.09 1.554,-1.777 2.847,-2.059 1.292,-0.242 3.049,-0.182 5.27,0.182 0.282,0.039 0.727,0.13 1.333,0.272 0.605,0.141 1.049,0.232 1.332,0.273 2.22,0.363 4.543,0.504 6.965,0.424 0.041,0 0.323,-0.021 0.849,-0.061 0.08,-0.041 0.232,-0.06 0.454,-0.06 0.221,0 0.373,-0.021 0.454,-0.061 1.817,-0.767 3.563,-2.161 5.24,-4.179 1.675,-2.02 2.735,-3.857 3.18,-5.512 0.201,-0.768 0.292,-1.575 0.272,-2.423 C 29.083,13.023 29.023,12.377 28.923,11.933 28.821,11.488 28.67,10.843 28.468,9.995 28.428,9.873 28.397,9.681 28.377,9.419 28.356,9.156 28.347,8.904 28.347,8.662 L 28.287,8.359 C 28.084,7.47 27.781,6.642 27.378,5.876 27.257,5.593 27.125,5.391 26.984,5.27 26.842,5.149 26.691,4.947 26.53,4.664 L 26.47,4.422 C 25.743,3.453 24.995,2.665 24.228,2.06 24.147,1.978 24.047,1.898 23.925,1.818 23.804,1.736 23.703,1.675 23.622,1.636 L 23.441,1.575 23.38,1.696 C 23.017,1.211 22.25,0.767 21.079,0.364 c -2.101,-0.768 -3.937,-1.313 -5.512,-1.636 -0.162,0 -0.364,-0.009 -0.606,-0.03 -0.242,-0.02 -0.404,-0.03 -0.485,-0.03 -0.041,-0.04 -0.142,-0.07 -0.302,-0.091 -0.163,-0.02 -0.324,-0.031 -0.485,-0.031 -0.121,0 -0.566,0.021 -1.333,0.061 H 9.691 9.176 8.601 c -0.162,0 -0.354,-0.009 -0.576,-0.03 C 7.803,-1.443 7.651,-1.454 7.571,-1.454 6.925,-1.493 6.138,-1.484 5.209,-1.423 4.28,-1.362 3.695,-1.332 3.452,-1.332 3.17,-1.372 2.907,-1.413 2.665,-1.454 2.423,-1.493 2.211,-1.534 2.029,-1.575 1.847,-1.614 1.716,-1.635 1.635,-1.635 1.433,-1.675 1.251,-1.736 1.09,-1.817 0.929,-1.856 0.827,-1.776 0.787,-1.575 c 0,0.041 -0.01,0.061 -0.03,0.061 -0.021,0 -0.151,-0.04 -0.393,-0.121 L 0,-1.756 c 0,0.161 -0.03,0.373 -0.091,0.636 -0.061,0.262 -0.082,0.484 -0.061,0.666 C -0.132,-0.272 -0.081,-0.121 0,0"
             style="fill:#ed1c24;fill-opacity:1;fill-rule:nonzero;stroke:none"
             id="path72" /></g></g></g></g></svg>
